# https://github.com/mikedh/trimesh
v -0.00140104 -0.04812977 0.07946598
v -0.00539440 -0.04801146 0.07649228
v 0.00116853 -0.04832622 0.07649205
v -0.00539440 -0.04801146 0.07649228
v -0.00140104 -0.04812977 0.07946598
v -0.00828353 -0.04741404 0.07943212
v -0.00539440 -0.04801146 0.07649228
v -0.00828353 -0.04741404 0.07943212
v -0.00999927 -0.04723923 0.07649177
v -0.00999927 -0.04723923 0.07649177
v -0.00828353 -0.04741404 0.07943212
v -0.01503426 -0.04571453 0.07948818
v -0.00999927 -0.04723923 0.07649177
v -0.01503426 -0.04571453 0.07948818
v -0.01751305 -0.04502259 0.07649093
v -0.01751305 -0.04502259 0.07649093
v -0.01503426 -0.04571453 0.07948818
v -0.02109333 -0.04327706 0.07935546
v -0.01751305 -0.04502259 0.07649093
v -0.02109333 -0.04327706 0.07935546
v -0.02396130 -0.04190237 0.07649334
v -0.02396130 -0.04190237 0.07649334
v -0.02109333 -0.04327706 0.07935546
v -0.02945835 -0.03820167 0.07649221
v -0.02945835 -0.03820167 0.07649221
v -0.02109333 -0.04327706 0.07935546
v -0.02634826 -0.04019969 0.07950158
v -0.02634826 -0.04019969 0.07950158
v -0.03166491 -0.03613849 0.07947290
v -0.02945835 -0.03820167 0.07649221
v -0.02945835 -0.03820167 0.07649221
v -0.03166491 -0.03613849 0.07947290
v -0.03449659 -0.03366624 0.07649241
v -0.03449659 -0.03366624 0.07649241
v -0.03166491 -0.03613849 0.07947290
v -0.03644577 -0.03122323 0.07946067
v -0.03449659 -0.03366624 0.07649241
v -0.03644577 -0.03122323 0.07946067
v -0.03776752 -0.02985354 0.07649177
v -0.03776752 -0.02985354 0.07649177
v -0.03644577 -0.03122323 0.07946067
v -0.04069255 -0.02537182 0.07948394
v -0.03776752 -0.02985354 0.07649177
v -0.04069255 -0.02537182 0.07948394
v -0.04209862 -0.02332567 0.07649093
v -0.04209862 -0.02332567 0.07649093
v -0.04069255 -0.02537182 0.07948394
v -0.04374365 -0.01962978 0.07935523
v -0.04209862 -0.02332567 0.07649093
v -0.04374365 -0.01962978 0.07935523
v -0.04503262 -0.01679061 0.07649334
v -0.04503262 -0.01679061 0.07649334
v -0.04374365 -0.01962978 0.07935523
v -0.04686483 -0.01042229 0.07649221
v -0.04686483 -0.01042229 0.07649221
v -0.04374365 -0.01962978 0.07935523
v -0.04580268 -0.01384015 0.07948655
v -0.04580268 -0.01384015 0.07948655
v -0.04724380 -0.00733162 0.07946855
v -0.04686483 -0.01042229 0.07649221
v -0.04686483 -0.01042229 0.07649221
v -0.04724380 -0.00733162 0.07946855
v -0.04780902 -0.00370945 0.07649241
v -0.04780902 -0.00370945 0.07649241
v -0.04724380 -0.00733162 0.07946855
v -0.04773811 -0.00042734 0.07943241
v -0.04780902 -0.00370945 0.07649241
v -0.04773811 -0.00042734 0.07943241
v -0.04786393 0.00131376 0.07649177
v -0.04786393 0.00131376 0.07649177
v -0.04773811 -0.00042734 0.07943241
v -0.04723838 0.00652603 0.07948803
v -0.04786393 0.00131376 0.07649177
v -0.04723838 0.00652603 0.07948803
v -0.04698571 0.00909839 0.07649093
v -0.04698571 0.00909839 0.07649093
v -0.04723838 0.00652603 0.07948803
v -0.04581071 0.01311241 0.07945630
v -0.04698571 0.00909839 0.07649093
v -0.04581071 0.01311241 0.07945630
v -0.04503268 0.01599034 0.07649334
v -0.04503268 0.01599034 0.07649334
v -0.04581071 0.01311241 0.07945630
v -0.04234270 0.02204660 0.07649221
v -0.04234270 0.02204660 0.07649221
v -0.04581071 0.01311241 0.07945630
v -0.04363964 0.01898260 0.07940729
v -0.04363964 0.01898260 0.07940729
v -0.04064651 0.02465512 0.07947522
v -0.04234270 0.02204660 0.07649221
v -0.04234270 0.02204660 0.07649221
v -0.04064651 0.02465512 0.07947522
v -0.03875105 0.02779586 0.07649241
v -0.03875105 0.02779586 0.07649241
v -0.04064651 0.02465512 0.07947522
v -0.03654113 0.03032085 0.07942836
v -0.03875105 0.02779586 0.07649241
v -0.03654113 0.03032085 0.07942836
v -0.03556429 0.03167914 0.07649176
v -0.03556429 0.03167914 0.07649176
v -0.03654113 0.03032085 0.07942836
v -0.03167948 0.03531913 0.07948577
v -0.03556429 0.03167914 0.07649176
v -0.03167948 0.03531913 0.07948577
v -0.02988763 0.03707802 0.07649093
v -0.02988763 0.03707802 0.07649093
v -0.03167948 0.03531913 0.07948577
v -0.02632086 0.03945308 0.07945892
v -0.02988763 0.03707802 0.07649093
v -0.02632086 0.03945308 0.07945892
v -0.02396142 0.04110220 0.07649334
v -0.02396142 0.04110220 0.07649334
v -0.02632086 0.03945308 0.07945892
v -0.01800795 0.04401243 0.07649221
v -0.01800795 0.04401243 0.07649221
v -0.02632086 0.03945308 0.07945892
v -0.02107243 0.04244972 0.07940731
v -0.02107243 0.04244972 0.07940731
v -0.01505286 0.04491418 0.07947054
v -0.01800795 0.04401243 0.07649221
v -0.01800795 0.04401243 0.07649221
v -0.01505286 0.04491418 0.07947054
v -0.01156109 0.04610795 0.07649240
v -0.01156109 0.04610795 0.07649240
v -0.01505286 0.04491418 0.07947054
v -0.00836501 0.04659215 0.07946366
v -0.01156109 0.04610795 0.07649240
v -0.00836501 0.04659215 0.07946366
v -0.00662367 0.04703432 0.07649176
v -0.00662367 0.04703432 0.07649176
v -0.00836501 0.04659215 0.07946366
v -0.00130414 0.04732805 0.07947470
v -0.00662367 0.04703432 0.07649176
v -0.00130414 0.04732805 0.07947470
v 0.00119512 0.04752122 0.07649092
v 0.00119512 0.04752122 0.07649092
v -0.00130414 0.04732805 0.07947470
v 0.00544011 0.04705504 0.07943406
v 0.00119512 0.04752122 0.07649092
v 0.00544011 0.04705504 0.07943406
v 0.00832161 0.04679462 0.07649334
v 0.00832161 0.04679462 0.07649334
v 0.00544011 0.04705504 0.07943406
v 0.01475294 0.04519716 0.07649221
v 0.01475294 0.04519716 0.07649221
v 0.00544011 0.04705504 0.07943406
v 0.01148851 0.04594821 0.07940598
v 0.01148851 0.04594821 0.07940598
v 0.01768034 0.04395836 0.07945903
v 0.01475294 0.04519716 0.07649221
v 0.01475294 0.04519716 0.07649221
v 0.01768034 0.04395836 0.07945903
v 0.02103847 0.04265847 0.07649240
v 0.02103847 0.04265847 0.07649240
v 0.01768034 0.04395836 0.07945903
v 0.02389583 0.04092756 0.07943007
v 0.02103847 0.04265847 0.07649240
v 0.02389583 0.04092756 0.07943007
v 0.02541620 0.04019440 0.07649176
v 0.02541620 0.04019440 0.07649176
v 0.02389583 0.04092756 0.07943007
v 0.02965563 0.03701623 0.07948710
v 0.02541620 0.04019440 0.07649176
v 0.02965563 0.03701623 0.07948710
v 0.03171873 0.03554155 0.07649093
v 0.03171873 0.03554155 0.07649093
v 0.02965563 0.03701623 0.07948710
v 0.03465267 0.03246813 0.07945715
v 0.03171873 0.03554155 0.07649093
v 0.03465267 0.03246813 0.07945715
v 0.03671088 0.03040412 0.07649334
v 0.03671088 0.03040412 0.07649334
v 0.03465267 0.03246813 0.07945715
v 0.04061072 0.02504645 0.07649221
v 0.04061072 0.02504645 0.07649221
v 0.03465267 0.03246813 0.07945715
v 0.03863200 0.02770529 0.07937387
v 0.04061072 0.02504645 0.07649221
v 0.03863200 0.02770529 0.07937387
v 0.04204772 0.02217932 0.07950375
v 0.04061072 0.02504645 0.07649221
v 0.04204772 0.02217932 0.07950375
v 0.04379389 0.01906143 0.07649241
v 0.04379389 0.01906143 0.07649241
v 0.04204772 0.02217932 0.07950375
v 0.04481273 0.01603447 0.07946292
v 0.04379389 0.01906143 0.07649241
v 0.04481273 0.01603447 0.07946292
v 0.04556354 0.01435991 0.07649177
v 0.04556354 0.01435991 0.07649177
v 0.04481273 0.01603447 0.07946292
v 0.04677281 0.00919525 0.07947148
v 0.04556354 0.01435991 0.07649177
v 0.04677281 0.00919525 0.07947148
v 0.04740077 0.00674442 0.07649093
v 0.04740077 0.00674442 0.07649093
v 0.04677281 0.00919525 0.07947148
v 0.04768477 0.00266812 0.07935459
v 0.04740077 0.00674442 0.07649093
v 0.04768477 0.00266812 0.07935459
v 0.04792271 -0.00039998 0.07649334
v 0.04792271 -0.00039998 0.07649334
v 0.04768477 0.00266812 0.07935459
v 0.04746632 -0.00701098 0.07649221
v 0.04746632 -0.00701098 0.07649221
v 0.04768477 0.00266812 0.07935459
v 0.04763735 -0.00347760 0.07947457
v 0.04763735 -0.00347760 0.07947457
v 0.04675770 -0.01008963 0.07946279
v 0.04746632 -0.00701098 0.07649221
v 0.04746632 -0.00701098 0.07649221
v 0.04675770 -0.01008963 0.07946279
v 0.04605766 -0.01364188 0.07649241
v 0.04605766 -0.01364188 0.07649241
v 0.04675770 -0.01008963 0.07946279
v 0.04485484 -0.01673996 0.07943134
v 0.04605766 -0.01364188 0.07649241
v 0.04485484 -0.01673996 0.07943134
v 0.04439121 -0.01838096 0.07649177
v 0.04439121 -0.01838096 0.07649177
v 0.04485484 -0.01673996 0.07943134
v 0.04200753 -0.02308920 0.07948789
v 0.04439121 -0.01838096 0.07649177
v 0.04200753 -0.02308920 0.07948789
v 0.04090350 -0.02539567 0.07649093
v 0.04090350 -0.02539567 0.07649093
v 0.04200753 -0.02308920 0.07948789
v 0.03840500 -0.02879470 0.07945481
v 0.04090350 -0.02539567 0.07649093
v 0.03840500 -0.02879470 0.07945481
v 0.03671096 -0.03120415 0.07649334
v 0.03671096 -0.03120415 0.07649334
v 0.03840500 -0.02879470 0.07945481
v 0.03211190 -0.03597507 0.07649221
v 0.03211190 -0.03597507 0.07649221
v 0.03840500 -0.02879470 0.07945481
v 0.03447965 -0.03343557 0.07940630
v 0.03447965 -0.03343557 0.07940630
v 0.02968015 -0.03780326 0.07947267
v 0.03211190 -0.03597507 0.07649221
v 0.03211190 -0.03597507 0.07649221
v 0.02968015 -0.03780326 0.07947267
v 0.02677055 -0.04014917 0.07649241
v 0.02677055 -0.04014917 0.07649241
v 0.02968015 -0.03780326 0.07947267
v 0.02399797 -0.04166037 0.07946189
v 0.02677055 -0.04014917 0.07649241
v 0.02399797 -0.04166037 0.07946189
v 0.02244775 -0.04270835 0.07649177
v 0.02244775 -0.04270835 0.07649177
v 0.02399797 -0.04166037 0.07946189
v 0.01759176 -0.04478924 0.07946772
v 0.02244775 -0.04270835 0.07649177
v 0.01759176 -0.04478924 0.07946772
v 0.01526701 -0.04584008 0.07649093
v 0.01526701 -0.04584008 0.07649093
v 0.01759176 -0.04478924 0.07946772
v 0.01132178 -0.04682305 0.07935454
v 0.01526701 -0.04584008 0.07649093
v 0.01132178 -0.04682305 0.07935454
v 0.00832179 -0.04759470 0.07649334
v 0.00832179 -0.04759470 0.07649334
v 0.01132178 -0.04682305 0.07935454
v 0.00116853 -0.04832622 0.07649205
v 0.00116853 -0.04832622 0.07649205
v 0.01132178 -0.04682305 0.07935454
v 0.00525950 -0.04784456 0.07948100
v 0.00116853 -0.04832622 0.07649205
v 0.00525950 -0.04784456 0.07948100
v -0.00140104 -0.04812977 0.07946598
v 0.02399797 -0.04166037 0.07946189
v 0.01656730 -0.03658220 0.08787639
v 0.01759176 -0.04478924 0.07946772
v 0.01759176 -0.04478924 0.07946772
v 0.01656730 -0.03658220 0.08787639
v 0.01132178 -0.04682305 0.07935454
v 0.01132178 -0.04682305 0.07935454
v 0.01656730 -0.03658220 0.08787639
v 0.00770353 -0.03840858 0.08895109
v 0.01132178 -0.04682305 0.07935454
v 0.00770353 -0.03840858 0.08895109
v 0.00525950 -0.04784456 0.07948100
v 0.00525950 -0.04784456 0.07948100
v 0.00770353 -0.03840858 0.08895109
v -0.00226260 -0.04008159 0.08792612
v 0.00525950 -0.04784456 0.07948100
v -0.00226260 -0.04008159 0.08792612
v -0.00140104 -0.04812977 0.07946598
v -0.00140104 -0.04812977 0.07946598
v -0.00226260 -0.04008159 0.08792612
v -0.00828353 -0.04741404 0.07943212
v -0.00828353 -0.04741404 0.07943212
v -0.00226260 -0.04008159 0.08792612
v -0.01503426 -0.04571453 0.07948818
v -0.01503426 -0.04571453 0.07948818
v -0.00226260 -0.04008159 0.08792612
v -0.00986868 -0.03784808 0.08907451
v -0.01503426 -0.04571453 0.07948818
v -0.00986868 -0.03784808 0.08907451
v -0.01875308 -0.03556120 0.08780251
v -0.01503426 -0.04571453 0.07948818
v -0.01875308 -0.03556120 0.08780251
v -0.02109333 -0.04327706 0.07935546
v -0.02109333 -0.04327706 0.07935546
v -0.01875308 -0.03556120 0.08780251
v -0.02634826 -0.04019969 0.07950158
v -0.02634826 -0.04019969 0.07950158
v -0.01875308 -0.03556120 0.08780251
v -0.03166491 -0.03613849 0.07947290
v -0.03166491 -0.03613849 0.07947290
v -0.01875308 -0.03556120 0.08780251
v -0.02843704 -0.02824144 0.08787531
v -0.03166491 -0.03613849 0.07947290
v -0.02843704 -0.02824144 0.08787531
v -0.03644577 -0.03122323 0.07946067
v 0.01656730 -0.03658220 0.08787639
v 0.02399797 -0.04166037 0.07946189
v 0.02678080 -0.02990381 0.08780864
v 0.02678080 -0.02990381 0.08780864
v 0.02399797 -0.04166037 0.07946189
v 0.02968015 -0.03780326 0.07947267
v 0.02678080 -0.02990381 0.08780864
v 0.02968015 -0.03780326 0.07947267
v 0.03447965 -0.03343557 0.07940630
v 0.02678080 -0.02990381 0.08780864
v 0.03447965 -0.03343557 0.07940630
v 0.03840500 -0.02879470 0.07945481
v 0.02678080 -0.02990381 0.08780864
v 0.03840500 -0.02879470 0.07945481
v 0.03186211 -0.02241018 0.08907418
v 0.03186211 -0.02241018 0.08907418
v 0.03840500 -0.02879470 0.07945481
v 0.03575774 -0.01573971 0.08888639
v 0.03575774 -0.01573971 0.08888639
v 0.03840500 -0.02879470 0.07945481
v 0.04200753 -0.02308920 0.07948789
v 0.03575774 -0.01573971 0.08888639
v 0.04200753 -0.02308920 0.07948789
v 0.04485484 -0.01673996 0.07943134
v 0.03575774 -0.01573971 0.08888639
v 0.04485484 -0.01673996 0.07943134
v 0.04675770 -0.01008963 0.07946279
v 0.03575774 -0.01573971 0.08888639
v 0.04675770 -0.01008963 0.07946279
v 0.03957081 -0.00392785 0.08797848
v 0.03957081 -0.00392785 0.08797848
v 0.04675770 -0.01008963 0.07946279
v 0.04763735 -0.00347760 0.07947457
v 0.04481273 0.01603447 0.07946292
v 0.03869533 0.00902891 0.08783280
v 0.04677281 0.00919525 0.07947148
v 0.04677281 0.00919525 0.07947148
v 0.03869533 0.00902891 0.08783280
v 0.04768477 0.00266812 0.07935459
v 0.04768477 0.00266812 0.07935459
v 0.03869533 0.00902891 0.08783280
v 0.03957081 -0.00392785 0.08797848
v 0.04768477 0.00266812 0.07935459
v 0.03957081 -0.00392785 0.08797848
v 0.04763735 -0.00347760 0.07947457
v -0.00836501 0.04659215 0.07946366
v -0.00742698 0.03876484 0.08774756
v -0.00130414 0.04732805 0.07947470
v -0.00130414 0.04732805 0.07947470
v -0.00742698 0.03876484 0.08774756
v 0.00137127 0.03935437 0.08775005
v -0.00130414 0.04732805 0.07947470
v 0.00137127 0.03935437 0.08775005
v 0.00544011 0.04705504 0.07943406
v 0.00544011 0.04705504 0.07943406
v 0.00137127 0.03935437 0.08775005
v 0.01058291 0.03785799 0.08806402
v 0.00544011 0.04705504 0.07943406
v 0.01058291 0.03785799 0.08806402
v 0.01148851 0.04594821 0.07940598
v 0.01148851 0.04594821 0.07940598
v 0.01058291 0.03785799 0.08806402
v 0.01768034 0.04395836 0.07945903
v 0.01768034 0.04395836 0.07945903
v 0.01058291 0.03785799 0.08806402
v 0.01822592 0.03383412 0.08894808
v 0.01768034 0.04395836 0.07945903
v 0.01822592 0.03383412 0.08894808
v 0.02389583 0.04092756 0.07943007
v 0.02389583 0.04092756 0.07943007
v 0.01822592 0.03383412 0.08894808
v 0.02965563 0.03701623 0.07948710
v 0.02965563 0.03701623 0.07948710
v 0.01822592 0.03383412 0.08894808
v 0.02698584 0.02889193 0.08781558
v 0.02965563 0.03701623 0.07948710
v 0.02698584 0.02889193 0.08781558
v 0.03465267 0.03246813 0.07945715
v 0.03465267 0.03246813 0.07945715
v 0.02698584 0.02889193 0.08781558
v 0.03863200 0.02770529 0.07937387
v 0.03863200 0.02770529 0.07937387
v 0.02698584 0.02889193 0.08781558
v 0.03343823 0.01949240 0.08889663
v 0.03863200 0.02770529 0.07937387
v 0.03343823 0.01949240 0.08889663
v 0.04204772 0.02217932 0.07950375
v 0.04204772 0.02217932 0.07950375
v 0.03343823 0.01949240 0.08889663
v 0.04481273 0.01603447 0.07946292
v 0.04481273 0.01603447 0.07946292
v 0.03343823 0.01949240 0.08889663
v 0.03869533 0.00902891 0.08783280
v -0.04581071 0.01311241 0.07945630
v -0.03820346 0.01119115 0.08770692
v -0.04363964 0.01898260 0.07940729
v -0.04363964 0.01898260 0.07940729
v -0.03820346 0.01119115 0.08770692
v -0.03236634 0.02246680 0.08815343
v -0.04363964 0.01898260 0.07940729
v -0.03236634 0.02246680 0.08815343
v -0.04064651 0.02465512 0.07947522
v -0.04064651 0.02465512 0.07947522
v -0.03236634 0.02246680 0.08815343
v -0.03654113 0.03032085 0.07942836
v -0.03654113 0.03032085 0.07942836
v -0.03236634 0.02246680 0.08815343
v -0.03167948 0.03531913 0.07948577
v -0.03167948 0.03531913 0.07948577
v -0.03236634 0.02246680 0.08815343
v -0.02612772 0.02825685 0.08895951
v -0.03167948 0.03531913 0.07948577
v -0.02612772 0.02825685 0.08895951
v -0.02632086 0.03945308 0.07945892
v -0.02632086 0.03945308 0.07945892
v -0.02612772 0.02825685 0.08895951
v -0.01848065 0.03489258 0.08780082
v -0.02632086 0.03945308 0.07945892
v -0.01848065 0.03489258 0.08780082
v -0.02107243 0.04244972 0.07940731
v -0.02107243 0.04244972 0.07940731
v -0.01848065 0.03489258 0.08780082
v -0.01505286 0.04491418 0.07947054
v -0.01505286 0.04491418 0.07947054
v -0.01848065 0.03489258 0.08780082
v -0.00742698 0.03876484 0.08774756
v -0.01505286 0.04491418 0.07947054
v -0.00742698 0.03876484 0.08774756
v -0.00836501 0.04659215 0.07946366
v -0.03644577 -0.03122323 0.07946067
v -0.02843704 -0.02824144 0.08787531
v -0.04069255 -0.02537182 0.07948394
v -0.04069255 -0.02537182 0.07948394
v -0.02843704 -0.02824144 0.08787531
v -0.03312914 -0.02055547 0.08895994
v -0.04069255 -0.02537182 0.07948394
v -0.03312914 -0.02055547 0.08895994
v -0.04374365 -0.01962978 0.07935523
v -0.04374365 -0.01962978 0.07935523
v -0.03312914 -0.02055547 0.08895994
v -0.03815517 -0.01183549 0.08780958
v -0.04374365 -0.01962978 0.07935523
v -0.03815517 -0.01183549 0.08780958
v -0.04580268 -0.01384015 0.07948655
v -0.04580268 -0.01384015 0.07948655
v -0.03815517 -0.01183549 0.08780958
v -0.04724380 -0.00733162 0.07946855
v -0.04724380 -0.00733162 0.07946855
v -0.03815517 -0.01183549 0.08780958
v -0.03891762 0.00032445 0.08885437
v -0.04724380 -0.00733162 0.07946855
v -0.03891762 0.00032445 0.08885437
v -0.04773811 -0.00042734 0.07943241
v -0.04773811 -0.00042734 0.07943241
v -0.03891762 0.00032445 0.08885437
v -0.04723838 0.00652603 0.07948803
v -0.04723838 0.00652603 0.07948803
v -0.03891762 0.00032445 0.08885437
v -0.03820346 0.01119115 0.08770692
v -0.04723838 0.00652603 0.07948803
v -0.03820346 0.01119115 0.08770692
v -0.04581071 0.01311241 0.07945630
v 0.03869533 0.00902891 0.08783280
v 0.03343823 0.01949240 0.08889663
v 0.03597520 0.01092419 0.09150304
v 0.03869533 0.00902891 0.08783280
v 0.03597520 0.01092419 0.09150304
v 0.03772805 0.00261606 0.09145441
v 0.03957081 -0.00392785 0.08797848
v 0.03869533 0.00902891 0.08783280
v 0.03772805 0.00261606 0.09145441
v 0.03957081 -0.00392785 0.08797848
v 0.03772805 0.00261606 0.09145441
v 0.03720895 -0.00626784 0.09162586
v 0.02678080 -0.02990381 0.08780864
v 0.03186211 -0.02241018 0.08907418
v 0.02720538 -0.02647119 0.09159251
v 0.02678080 -0.02990381 0.08780864
v 0.02720538 -0.02647119 0.09159251
v 0.02281220 -0.03043434 0.09150318
v 0.02678080 -0.02990381 0.08780864
v 0.02281220 -0.03043434 0.09150318
v 0.01782813 -0.03359941 0.09159251
v 0.01656730 -0.03658220 0.08787639
v 0.01033897 -0.03679748 0.09153295
v 0.00770353 -0.03840858 0.08895109
v -0.01875308 -0.03556120 0.08780251
v -0.00986868 -0.03784808 0.08907451
v -0.01552733 -0.03477123 0.09150358
v -0.01875308 -0.03556120 0.08780251
v -0.01552733 -0.03477123 0.09150358
v -0.02067995 -0.03190359 0.09159072
v -0.01875308 -0.03556120 0.08780251
v -0.02067995 -0.03190359 0.09159072
v -0.02522364 -0.02839687 0.09159226
v -0.02843704 -0.02824144 0.08787531
v -0.03076319 -0.02242997 0.09153258
v -0.03312914 -0.02055547 0.08895994
v -0.03820346 0.01119115 0.08770692
v -0.03487285 0.01388115 0.09159199
v -0.03224627 0.01914067 0.09154058
v -0.03236634 0.02246680 0.08815343
v -0.02726279 0.02571222 0.09178140
v -0.02612772 0.02825685 0.08895951
v 0.00137127 0.03935437 0.08775005
v -0.00742698 0.03876484 0.08774756
v 0.00165901 0.03724740 0.09159170
v 0.00137127 0.03935437 0.08775005
v 0.00165901 0.03724740 0.09159170
v 0.00749100 0.03655324 0.09154061
v 0.01058291 0.03785799 0.08806402
v 0.01535033 0.03409123 0.09177295
v 0.01822592 0.03383412 0.08894808
v 0.03957081 -0.00392785 0.08797848
v 0.03720895 -0.00626784 0.09162586
v 0.03591702 -0.01178578 0.09159950
v 0.03575774 -0.01573971 0.08888639
v 0.03591702 -0.01178578 0.09159950
v 0.03220123 -0.01989129 0.09311986
v 0.03575774 -0.01573971 0.08888639
v 0.03957081 -0.00392785 0.08797848
v 0.03591702 -0.01178578 0.09159950
v 0.03186211 -0.02241018 0.08907418
v 0.03575774 -0.01573971 0.08888639
v 0.03220123 -0.01989129 0.09311986
v 0.03186211 -0.02241018 0.08907418
v 0.03220123 -0.01989129 0.09311986
v 0.02720538 -0.02647119 0.09159251
v 0.01033897 -0.03679748 0.09153295
v 0.00121672 -0.03806640 0.09158718
v 0.00770353 -0.03840858 0.08895109
v 0.01782813 -0.03359941 0.09159251
v 0.01033897 -0.03679748 0.09153295
v 0.01656730 -0.03658220 0.08787639
v 0.01782813 -0.03359941 0.09159251
v 0.01656730 -0.03658220 0.08787639
v 0.02678080 -0.02990381 0.08780864
v -0.00226260 -0.04008159 0.08792612
v 0.00770353 -0.03840858 0.08895109
v 0.00121672 -0.03806640 0.09158718
v -0.00226260 -0.04008159 0.08792612
v 0.00121672 -0.03806640 0.09158718
v -0.00710105 -0.03746865 0.09178717
v -0.00986868 -0.03784808 0.08907451
v -0.00710105 -0.03746865 0.09178717
v -0.01552733 -0.03477123 0.09150358
v -0.00226260 -0.04008159 0.08792612
v -0.00710105 -0.03746865 0.09178717
v -0.00986868 -0.03784808 0.08907451
v -0.03076319 -0.02242997 0.09153258
v -0.03495729 -0.01445850 0.09160009
v -0.03312914 -0.02055547 0.08895994
v -0.02522364 -0.02839687 0.09159226
v -0.03076319 -0.02242997 0.09153258
v -0.02843704 -0.02824144 0.08787531
v -0.02522364 -0.02839687 0.09159226
v -0.02843704 -0.02824144 0.08787531
v -0.01875308 -0.03556120 0.08780251
v -0.03815517 -0.01183549 0.08780958
v -0.03312914 -0.02055547 0.08895994
v -0.03495729 -0.01445850 0.09160009
v -0.03815517 -0.01183549 0.08780958
v -0.03495729 -0.01445850 0.09160009
v -0.03676718 -0.00881009 0.09150309
v -0.03815517 -0.01183549 0.08780958
v -0.03676718 -0.00881009 0.09150309
v -0.03777716 -0.00079786 0.09166692
v -0.03891762 0.00032445 0.08885437
v -0.03777716 -0.00079786 0.09166692
v -0.03670519 0.00827105 0.09150341
v -0.03777716 -0.00079786 0.09166692
v -0.03891762 0.00032445 0.08885437
v -0.03815517 -0.01183549 0.08780958
v -0.03670519 0.00827105 0.09150341
v -0.03487285 0.01388115 0.09159199
v -0.03820346 0.01119115 0.08770692
v -0.03670519 0.00827105 0.09150341
v -0.03820346 0.01119115 0.08770692
v -0.03891762 0.00032445 0.08885437
v -0.02726279 0.02571222 0.09178140
v -0.02047433 0.03123040 0.09159882
v -0.02612772 0.02825685 0.08895951
v -0.03224627 0.01914067 0.09154058
v -0.02726279 0.02571222 0.09178140
v -0.03236634 0.02246680 0.08815343
v -0.03224627 0.01914067 0.09154058
v -0.03236634 0.02246680 0.08815343
v -0.03820346 0.01119115 0.08770692
v -0.01848065 0.03489258 0.08780082
v -0.02612772 0.02825685 0.08895951
v -0.02047433 0.03123040 0.09159882
v -0.01848065 0.03489258 0.08780082
v -0.02047433 0.03123040 0.09159882
v -0.01543047 0.03397489 0.09159680
v -0.01543047 0.03397489 0.09159680
v -0.00987521 0.03600004 0.09150359
v -0.01848065 0.03489258 0.08780082
v -0.00742698 0.03876484 0.08774756
v -0.01848065 0.03489258 0.08780082
v -0.00987521 0.03600004 0.09150359
v -0.00742698 0.03876484 0.08774756
v -0.00987521 0.03600004 0.09150359
v -0.00407778 0.03706379 0.09158998
v -0.00407778 0.03706379 0.09158998
v 0.00165901 0.03724740 0.09159170
v -0.00742698 0.03876484 0.08774756
v 0.01535033 0.03409123 0.09177295
v 0.02285208 0.02955754 0.09159917
v 0.01822592 0.03383412 0.08894808
v 0.00749100 0.03655324 0.09154061
v 0.01535033 0.03409123 0.09177295
v 0.01058291 0.03785799 0.08806402
v 0.00749100 0.03655324 0.09154061
v 0.01058291 0.03785799 0.08806402
v 0.00137127 0.03935437 0.08775005
v 0.02698584 0.02889193 0.08781558
v 0.01822592 0.03383412 0.08894808
v 0.02285208 0.02955754 0.09159917
v 0.02698584 0.02889193 0.08781558
v 0.02285208 0.02955754 0.09159917
v 0.02729125 0.02563284 0.09150349
v 0.03343823 0.01949240 0.08889663
v 0.02729125 0.02563284 0.09150349
v 0.03233598 0.01896275 0.09291636
v 0.03233598 0.01896275 0.09291636
v 0.03597520 0.01092419 0.09150304
v 0.03343823 0.01949240 0.08889663
v 0.02729125 0.02563284 0.09150349
v 0.03343823 0.01949240 0.08889663
v 0.02698584 0.02889193 0.08781558
v 0.03172303 -0.01871533 0.33908809
v 0.03080613 -0.02199986 0.33908809
v 0.03442150 -0.01292844 0.33908809
v 0.03625570 -0.01050602 0.33908800
v 0.03607409 -0.00676087 0.33908809
v 0.03663059 -0.00040003 0.33908809
v 0.03749951 -0.00040003 0.33908809
v 0.03607409 0.00596080 0.33908809
v 0.03620767 0.00979715 0.33908809
v 0.03442149 0.01212837 0.33908809
v 0.03172302 0.01791526 0.33908809
v 0.03080610 0.02119979 0.33908809
v 0.02806066 0.02314566 0.33908809
v 0.02354568 0.02766063 0.33908809
v 0.02186589 0.03023402 0.33908800
v 0.01831528 0.03132299 0.33908809
v 0.01268026 0.03398390 0.33908849
v 0.00636082 0.03567405 0.33908809
v 0.00438984 0.03706245 0.33908831
v -0.00000001 0.03623055 0.33908809
v -0.00636085 0.03567405 0.33908809
v -0.00980689 0.03592327 0.33908809
v -0.01252842 0.03402145 0.33908809
v -0.01831531 0.03132298 0.33908809
v -0.02133876 0.03060269 0.33908800
v -0.02354570 0.02766062 0.33908809
v -0.02806067 0.02314565 0.33908809
v -0.03070272 0.02140941 0.33908788
v -0.03172303 0.01791524 0.33908809
v -0.03442151 0.01212835 0.33908809
v -0.03642703 0.00899868 0.33908809
v -0.03607409 0.00596078 0.33908809
v -0.03663059 -0.00040006 0.33908809
v -0.03749063 -0.00356059 0.33908809
v -0.03607409 -0.00676089 0.33908809
v -0.03442150 -0.01292846 0.33908809
v -0.03430070 -0.01589640 0.33908800
v -0.03172302 -0.01871535 0.33908809
v -0.02806066 -0.02394574 0.33908809
v -0.02872629 -0.02450428 0.33908809
v -0.02354568 -0.02846071 0.33908809
v -0.02125378 -0.03143962 0.33908809
v -0.01831529 -0.03212307 0.33908810
v -0.01252840 -0.03482155 0.33908810
v -0.00980690 -0.03672336 0.33908810
v -0.00636083 -0.03647414 0.33908810
v 0.00000001 -0.03703064 0.33908810
v 0.00290766 -0.03791065 0.33908800
v 0.00636085 -0.03647414 0.33908810
v 0.01252841 -0.03482154 0.33908810
v 0.01282560 -0.03563806 0.33908810
v 0.01831530 -0.03212306 0.33908810
v 0.02193270 -0.03096211 0.33908809
v 0.02354570 -0.02846070 0.33908809
v 0.02806067 -0.02394573 0.33908809
v 0.00290766 -0.03791065 0.33908800
v -0.00980690 -0.03672336 0.33908810
v -0.00710105 -0.03746865 0.09178717
v -0.02125378 -0.03143962 0.33908809
v -0.01552733 -0.03477123 0.09150358
v -0.00980690 -0.03672336 0.33908810
v -0.00980690 -0.03672336 0.33908810
v -0.01552733 -0.03477123 0.09150358
v -0.00710105 -0.03746865 0.09178717
v -0.02125378 -0.03143962 0.33908809
v -0.02067995 -0.03190359 0.09159072
v -0.01552733 -0.03477123 0.09150358
v -0.02872629 -0.02450428 0.33908809
v -0.03076319 -0.02242997 0.09153258
v -0.02522364 -0.02839687 0.09159226
v -0.02872629 -0.02450428 0.33908809
v -0.02522364 -0.02839687 0.09159226
v -0.02125378 -0.03143962 0.33908809
v -0.02125378 -0.03143962 0.33908809
v -0.02522364 -0.02839687 0.09159226
v -0.02067995 -0.03190359 0.09159072
v -0.03430070 -0.01589640 0.33908800
v -0.03495729 -0.01445850 0.09160009
v -0.03076319 -0.02242997 0.09153258
v -0.03430070 -0.01589640 0.33908800
v -0.03076319 -0.02242997 0.09153258
v -0.02872629 -0.02450428 0.33908809
v -0.03749063 -0.00356059 0.33908809
v -0.03676718 -0.00881009 0.09150309
v -0.03430070 -0.01589640 0.33908800
v -0.03430070 -0.01589640 0.33908800
v -0.03676718 -0.00881009 0.09150309
v -0.03495729 -0.01445850 0.09160009
v -0.03749063 -0.00356059 0.33908809
v -0.03777716 -0.00079786 0.09166692
v -0.03676718 -0.00881009 0.09150309
v -0.03642703 0.00899868 0.33908809
v -0.03777716 -0.00079786 0.09166692
v -0.03749063 -0.00356059 0.33908809
v -0.03642703 0.00899868 0.33908809
v -0.03670519 0.00827105 0.09150341
v -0.03777716 -0.00079786 0.09166692
v -0.03070272 0.02140941 0.33908788
v -0.03487285 0.01388115 0.09159199
v -0.03642703 0.00899868 0.33908809
v -0.03642703 0.00899868 0.33908809
v -0.03487285 0.01388115 0.09159199
v -0.03670519 0.00827105 0.09150341
v -0.02726279 0.02571222 0.09178140
v -0.03224627 0.01914067 0.09154058
v -0.03070272 0.02140941 0.33908788
v -0.03070272 0.02140941 0.33908788
v -0.03224627 0.01914067 0.09154058
v -0.03487285 0.01388115 0.09159199
v -0.02133876 0.03060269 0.33908800
v -0.02047433 0.03123040 0.09159882
v -0.02726279 0.02571222 0.09178140
v -0.02133876 0.03060269 0.33908800
v -0.02726279 0.02571222 0.09178140
v -0.03070272 0.02140941 0.33908788
v -0.00980689 0.03592327 0.33908809
v -0.01543047 0.03397489 0.09159680
v -0.02133876 0.03060269 0.33908800
v -0.02133876 0.03060269 0.33908800
v -0.01543047 0.03397489 0.09159680
v -0.02047433 0.03123040 0.09159882
v -0.00980689 0.03592327 0.33908809
v -0.00987521 0.03600004 0.09150359
v -0.01543047 0.03397489 0.09159680
v 0.00438984 0.03706245 0.33908831
v -0.00407778 0.03706379 0.09158998
v -0.00980689 0.03592327 0.33908809
v -0.00980689 0.03592327 0.33908809
v -0.00407778 0.03706379 0.09158998
v -0.00987521 0.03600004 0.09150359
v 0.00438984 0.03706245 0.33908831
v 0.00165901 0.03724740 0.09159170
v -0.00407778 0.03706379 0.09158998
v 0.01535033 0.03409123 0.09177295
v 0.00749100 0.03655324 0.09154061
v 0.00438984 0.03706245 0.33908831
v 0.00438984 0.03706245 0.33908831
v 0.00749100 0.03655324 0.09154061
v 0.00165901 0.03724740 0.09159170
v 0.01535033 0.03409123 0.09177295
v 0.00438984 0.03706245 0.33908831
v 0.01268026 0.03398390 0.33908849
v 0.01535033 0.03409123 0.09177295
v 0.01268026 0.03398390 0.33908849
v 0.02186589 0.03023402 0.33908800
v 0.01535033 0.03409123 0.09177295
v 0.02186589 0.03023402 0.33908800
v 0.02285208 0.02955754 0.09159917
v 0.02285208 0.02955754 0.09159917
v 0.02186589 0.03023402 0.33908800
v 0.02729125 0.02563284 0.09150349
v 0.02729125 0.02563284 0.09150349
v 0.02186589 0.03023402 0.33908800
v 0.03080610 0.02119979 0.33908809
v 0.02729125 0.02563284 0.09150349
v 0.03080610 0.02119979 0.33908809
v 0.03233598 0.01896275 0.09291636
v 0.03233598 0.01896275 0.09291636
v 0.03080610 0.02119979 0.33908809
v 0.03620767 0.00979715 0.33908809
v 0.03233598 0.01896275 0.09291636
v 0.03620767 0.00979715 0.33908809
v 0.03597520 0.01092419 0.09150304
v 0.03597520 0.01092419 0.09150304
v 0.03620767 0.00979715 0.33908809
v 0.03772805 0.00261606 0.09145441
v 0.03772805 0.00261606 0.09145441
v 0.03620767 0.00979715 0.33908809
v 0.03749951 -0.00040003 0.33908809
v 0.03625570 -0.01050602 0.33908800
v 0.03591702 -0.01178578 0.09159950
v 0.03720895 -0.00626784 0.09162586
v 0.03625570 -0.01050602 0.33908800
v 0.03720895 -0.00626784 0.09162586
v 0.03749951 -0.00040003 0.33908809
v 0.03749951 -0.00040003 0.33908809
v 0.03720895 -0.00626784 0.09162586
v 0.03772805 0.00261606 0.09145441
v 0.03080613 -0.02199986 0.33908809
v 0.03220123 -0.01989129 0.09311986
v 0.03625570 -0.01050602 0.33908800
v 0.03625570 -0.01050602 0.33908800
v 0.03220123 -0.01989129 0.09311986
v 0.03591702 -0.01178578 0.09159950
v 0.02193270 -0.03096211 0.33908809
v 0.02720538 -0.02647119 0.09159251
v 0.03080613 -0.02199986 0.33908809
v 0.03080613 -0.02199986 0.33908809
v 0.02720538 -0.02647119 0.09159251
v 0.03220123 -0.01989129 0.09311986
v 0.02193270 -0.03096211 0.33908809
v 0.02281220 -0.03043434 0.09150318
v 0.02720538 -0.02647119 0.09159251
v 0.01282560 -0.03563806 0.33908810
v 0.01033897 -0.03679748 0.09153295
v 0.01782813 -0.03359941 0.09159251
v 0.01282560 -0.03563806 0.33908810
v 0.01782813 -0.03359941 0.09159251
v 0.02193270 -0.03096211 0.33908809
v 0.02193270 -0.03096211 0.33908809
v 0.01782813 -0.03359941 0.09159251
v 0.02281220 -0.03043434 0.09150318
v -0.00710105 -0.03746865 0.09178717
v 0.00121672 -0.03806640 0.09158718
v 0.00290766 -0.03791065 0.33908800
v 0.00290766 -0.03791065 0.33908800
v 0.00121672 -0.03806640 0.09158718
v 0.01033897 -0.03679748 0.09153295
v 0.00290766 -0.03791065 0.33908800
v 0.01033897 -0.03679748 0.09153295
v 0.01282560 -0.03563806 0.33908810
vn -0.04788926 -0.99855011 0.02458243
vn -0.04788926 -0.99855011 0.02458243
vn -0.04788926 -0.99855011 0.02458243
vn -0.10340591 -0.98965099 0.09948938
vn -0.10340591 -0.98965099 0.09948938
vn -0.10340591 -0.98965099 0.09948938
vn -0.16527580 -0.98552092 0.03784748
vn -0.16527580 -0.98552092 0.03784748
vn -0.16527580 -0.98552092 0.03784748
vn -0.24261354 -0.96647014 0.08410793
vn -0.24261354 -0.96647014 0.08410793
vn -0.24261354 -0.96647014 0.08410793
vn -0.28293286 -0.95905714 0.01258577
vn -0.28293286 -0.95905714 0.01258577
vn -0.28293286 -0.95905714 0.01258577
vn -0.37330688 -0.92275792 0.09570686
vn -0.37330688 -0.92275792 0.09570686
vn -0.37330688 -0.92275792 0.09570686
vn -0.43556678 -0.90014703 0.00411215
vn -0.43556678 -0.90014703 0.00411215
vn -0.43556678 -0.90014703 0.00411215
vn -0.55136127 -0.81894681 0.15914418
vn -0.55136127 -0.81894681 0.15914418
vn -0.55136127 -0.81894681 0.15914418
vn -0.50574571 -0.86128061 -0.04916276
vn -0.50574571 -0.86128061 -0.04916276
vn -0.50574571 -0.86128061 -0.04916276
vn -0.60434101 -0.79045613 0.09975500
vn -0.60434101 -0.79045613 0.09975500
vn -0.60434101 -0.79045613 0.09975500
vn -0.66892348 -0.74308441 0.01915561
vn -0.66892348 -0.74308441 0.01915561
vn -0.66892348 -0.74308441 0.01915561
vn -0.71319829 -0.69344301 0.10239626
vn -0.71319829 -0.69344301 0.10239626
vn -0.71319829 -0.69344301 0.10239626
vn -0.75844137 -0.65066290 0.03747648
vn -0.75844137 -0.65066290 0.03747648
vn -0.75844137 -0.65066290 0.03747648
vn -0.80594969 -0.58528782 0.08878771
vn -0.80594969 -0.58528782 0.08878771
vn -0.80594969 -0.58528782 0.08878771
vn -0.83319973 -0.55280736 0.01349940
vn -0.83319973 -0.55280736 0.01349940
vn -0.83319973 -0.55280736 0.01349940
vn -0.87994784 -0.46543558 0.09519204
vn -0.87994784 -0.46543558 0.09519204
vn -0.87994784 -0.46543558 0.09519204
vn -0.91226478 -0.40957567 0.00455414
vn -0.91226478 -0.40957567 0.00455414
vn -0.91226478 -0.40957567 0.00455414
vn -0.94916525 -0.27305311 0.15661206
vn -0.94916525 -0.27305311 0.15661206
vn -0.94916525 -0.27305311 0.15661206
vn -0.94148340 -0.33376480 -0.04701141
vn -0.94148340 -0.33376480 -0.04701141
vn -0.94148340 -0.33376480 -0.04701141
vn -0.97157581 -0.21485084 0.09939600
vn -0.97157581 -0.21485084 0.09939600
vn -0.97157581 -0.21485084 0.09939600
vn -0.99008223 -0.13925969 0.01854499
vn -0.99008223 -0.13925969 0.01854499
vn -0.99008223 -0.13925969 0.01854499
vn -0.99221759 -0.07050115 0.10263454
vn -0.99221759 -0.07050115 0.10263454
vn -0.99221759 -0.07050115 0.10263454
vn -0.99928163 -0.01091947 0.03629027
vn -0.99928163 -0.01091947 0.03629027
vn -0.99928163 -0.01091947 0.03629027
vn -0.99391492 0.07075641 0.08441959
vn -0.99391492 0.07075641 0.08441959
vn -0.99391492 0.07075641 0.08441959
vn -0.99361948 0.11209576 0.01244434
vn -0.99361948 0.11209576 0.01244434
vn -0.99361948 0.11209576 0.01244434
vn -0.97237074 0.21125087 0.09933892
vn -0.97237074 0.21125087 0.09933892
vn -0.97237074 0.21125087 0.09933892
vn -0.96204501 0.27261896 0.01217769
vn -0.96204501 0.27261896 0.01217769
vn -0.96204501 0.27261896 0.01217769
vn -0.90320310 0.40120037 0.15252022
vn -0.90320310 0.40120037 0.15252022
vn -0.90320310 0.40120037 0.15252022
vn -0.93673076 0.34600270 -0.05308126
vn -0.93673076 0.34600270 -0.05308126
vn -0.93673076 0.34600270 -0.05308126
vn -0.88086438 0.46364947 0.09543117
vn -0.88086438 0.46364947 0.09543117
vn -0.88086438 0.46364947 0.09543117
vn -0.84795553 0.52972907 0.01893479
vn -0.84795553 0.52972907 0.01893479
vn -0.84795553 0.52972907 0.01893479
vn -0.80500492 0.58416247 0.10354361
vn -0.80500492 0.58416247 0.10354361
vn -0.80500492 0.58416247 0.10354361
vn -0.77251466 0.63396082 0.03626000
vn -0.77251466 0.63396082 0.03626000
vn -0.77251466 0.63396082 0.03626000
vn -0.71481934 0.69432164 0.08337129
vn -0.71481934 0.69432164 0.08337129
vn -0.71481934 0.69432164 0.08337129
vn -0.68909458 0.72455042 0.01324192
vn -0.68909458 0.72455042 0.01324192
vn -0.68909458 0.72455042 0.01324192
vn -0.60748217 0.78809086 0.09938913
vn -0.60748217 0.78809086 0.09938913
vn -0.60748217 0.78809086 0.09938913
vn -0.56172667 0.82721930 0.01309113
vn -0.56172667 0.82721930 0.01309113
vn -0.56172667 0.82721930 0.01309113
vn -0.43427189 0.88844950 0.14854430
vn -0.43427189 0.88844950 0.14854430
vn -0.43427189 0.88844950 0.14854430
vn -0.49546416 0.86680992 -0.05617669
vn -0.49546416 0.86680992 -0.05617669
vn -0.49546416 0.86680992 -0.05617669
vn -0.37799147 0.92079187 0.09625374
vn -0.37799147 0.92079187 0.09625374
vn -0.37799147 0.92079187 0.09625374
vn -0.30907041 0.95085394 0.01876860
vn -0.30907041 0.95085394 0.01876860
vn -0.30907041 0.95085394 0.01876860
vn -0.24196037 0.96479911 0.10304298
vn -0.24196037 0.96479911 0.10304298
vn -0.24196037 0.96479911 0.10304298
vn -0.18426561 0.98213553 0.03815744
vn -0.18426561 0.98213553 0.03815744
vn -0.18426561 0.98213553 0.03815744
vn -0.10340277 0.99084199 0.08683325
vn -0.10340277 0.99084199 0.08683325
vn -0.10340277 0.99084199 0.08683325
vn -0.06214599 0.99798809 0.01255551
vn -0.06214599 0.99798809 0.01255551
vn -0.06214599 0.99798809 0.01255551
vn 0.04084242 0.99429053 0.09858117
vn 0.04084242 0.99429053 0.09858117
vn 0.04084242 0.99429053 0.09858117
vn 0.10142159 0.99477955 0.01128328
vn 0.10142159 0.99477955 0.01128328
vn 0.10142159 0.99477955 0.01128328
vn 0.23840935 0.95972606 0.14861652
vn 0.23840935 0.95972606 0.14861652
vn 0.23840935 0.95972606 0.14861652
vn 0.17952863 0.98237319 -0.05208065
vn 0.17952863 0.98237319 -0.05208065
vn 0.17952863 0.98237319 -0.05208065
vn 0.30379645 0.94788477 0.09603215
vn 0.30379645 0.94788477 0.09603215
vn 0.30379645 0.94788477 0.09603215
vn 0.37444303 0.92708215 0.01763823
vn 0.37444303 0.92708215 0.01763823
vn 0.37444303 0.92708215 0.01763823
vn 0.43637614 0.89393331 0.10226974
vn 0.43637614 0.89393331 0.10226974
vn 0.43637614 0.89393331 0.10226974
vn 0.49018324 0.87086155 0.03633938
vn 0.49018324 0.87086155 0.03633938
vn 0.49018324 0.87086155 0.03633938
vn 0.55925326 0.82477296 0.08357840
vn 0.55925326 0.82477296 0.08357840
vn 0.55925326 0.82477296 0.08357840
vn 0.59388411 0.80444563 0.01299576
vn 0.59388411 0.80444563 0.01299576
vn 0.59388411 0.80444563 0.01299576
vn 0.67009986 0.73558995 0.09936597
vn 0.67009986 0.73558995 0.09936597
vn 0.67009986 0.73558995 0.09936597
vn 0.71711333 0.69684059 0.01271448
vn 0.71711333 0.69684059 0.01271448
vn 0.71711333 0.69684059 0.01271448
vn 0.79937113 0.58183001 0.14993212
vn 0.79937113 0.58183001 0.14993212
vn 0.79937113 0.58183001 0.14993212
vn 0.76519292 0.64045965 -0.06550754
vn 0.76519292 0.64045965 -0.06550754
vn 0.76519292 0.64045965 -0.06550754
vn 0.84565111 0.52497820 0.09629168
vn 0.84565111 0.52497820 0.09629168
vn 0.84565111 0.52497820 0.09629168
vn 0.88260102 0.46941634 0.02576304
vn 0.88260102 0.46941634 0.02576304
vn 0.88260102 0.46941634 0.02576304
vn 0.90723352 0.40753860 0.10411356
vn 0.90723352 0.40753860 0.10411356
vn 0.90723352 0.40753860 0.10411356
vn 0.93522535 0.35201498 0.03793399
vn 0.93522535 0.35201498 0.03793399
vn 0.93522535 0.35201498 0.03793399
vn 0.95760570 0.27455267 0.08724771
vn 0.95760570 0.27455267 0.08724771
vn 0.95760570 0.27455267 0.08724771
vn 0.97204175 0.23450271 0.01197153
vn 0.97204175 0.23450271 0.01197153
vn 0.97204175 0.23450271 0.01197153
vn 0.98605144 0.13605283 0.09587588
vn 0.98605144 0.13605283 0.09587588
vn 0.98605144 0.13605283 0.09587588
vn 0.99733048 0.07286155 0.00480716
vn 0.99733048 0.07286155 0.00480716
vn 0.99733048 0.07286155 0.00480716
vn 0.98557562 -0.06806553 0.15494447
vn 0.98557562 -0.06806553 0.15494447
vn 0.98557562 -0.06806553 0.15494447
vn 0.99885462 -0.00862557 -0.04706436
vn 0.99885462 -0.00862557 -0.04706436
vn 0.99885462 -0.00862557 -0.04706436
vn 0.98636237 -0.13140087 0.09911152
vn 0.98636237 -0.13140087 0.09911152
vn 0.98636237 -0.13140087 0.09911152
vn 0.97801312 -0.20776724 0.01797538
vn 0.97801312 -0.20776724 0.01797538
vn 0.97801312 -0.20776724 0.01797538
vn 0.95623406 -0.27409080 0.10242391
vn 0.95623406 -0.27409080 0.10242391
vn 0.95623406 -0.27409080 0.10242391
vn 0.94274933 -0.33151266 0.03637374
vn 0.94274933 -0.33151266 0.03637374
vn 0.94274933 -0.33151266 0.03637374
vn 0.90951753 -0.40712548 0.08382545
vn 0.90951753 -0.40712548 0.08382545
vn 0.90951753 -0.40712548 0.08382545
vn 0.89535417 -0.44517169 0.01276980
vn 0.89535417 -0.44517169 0.01276980
vn 0.89535417 -0.44517169 0.01276980
vn 0.84111109 -0.53166538 0.09931800
vn 0.84111109 -0.53166538 0.09931800
vn 0.84111109 -0.53166538 0.09931800
vn 0.81078406 -0.58521527 0.01234109
vn 0.81078406 -0.58521527 0.01234109
vn 0.81078406 -0.58521527 0.01234109
vn 0.71167197 -0.68607151 0.15109233
vn 0.71167197 -0.68607151 0.15109233
vn 0.71167197 -0.68607151 0.15109233
vn 0.76252345 -0.64435187 -0.05804013
vn 0.76252345 -0.64435187 -0.05804013
vn 0.76252345 -0.64435187 -0.05804013
vn 0.67066700 -0.73551494 0.09603929
vn 0.67066700 -0.73551494 0.09603929
vn 0.67066700 -0.73551494 0.09603929
vn 0.61563875 -0.78779768 0.01907203
vn 0.61563875 -0.78779768 0.01907203
vn 0.61563875 -0.78779768 0.01907203
vn 0.55853801 -0.82310745 0.10261298
vn 0.55853801 -0.82310745 0.10261298
vn 0.55853801 -0.82310745 0.10261298
vn 0.50907138 -0.85989813 0.03770337
vn 0.50907138 -0.85989813 0.03770337
vn 0.50907138 -0.85989813 0.03770337
vn 0.43724126 -0.89506744 0.08760338
vn 0.43724126 -0.89506744 0.08760338
vn 0.43724126 -0.89506744 0.08760338
vn 0.39973650 -0.91655949 0.01137714
vn 0.39973650 -0.91655949 0.01137714
vn 0.39973650 -0.91655949 0.01137714
vn 0.30556345 -0.94734128 0.09578866
vn 0.30556345 -0.94734128 0.09578866
vn 0.30556345 -0.94734128 0.09578866
vn 0.24494048 -0.96952696 0.00465211
vn 0.24494048 -0.96952696 0.00465211
vn 0.24494048 -0.96952696 0.00465211
vn 0.10040135 -0.98206545 0.15958392
vn 0.10040135 -0.98206545 0.15958392
vn 0.10040135 -0.98206545 0.15958392
vn 0.16444356 -0.98414348 -0.06648252
vn 0.16444356 -0.98414348 -0.06648252
vn 0.16444356 -0.98414348 -0.06648252
vn 0.04232770 -0.99386057 0.10222296
vn 0.04232770 -0.99386057 0.10222296
vn 0.04232770 -0.99386057 0.10222296
vn 0.32183073 -0.65766423 0.68110405
vn 0.32183073 -0.65766423 0.68110405
vn 0.32183073 -0.65766423 0.68110405
vn 0.21019390 -0.68672377 0.69586564
vn 0.21019390 -0.68672377 0.69586564
vn 0.21019390 -0.68672377 0.69586564
vn 0.22546816 -0.68881794 0.68898037
vn 0.22546816 -0.68881794 0.68898037
vn 0.22546816 -0.68881794 0.68898037
vn 0.13538997 -0.71911047 0.68157882
vn 0.13538997 -0.71911047 0.68157882
vn 0.13538997 -0.71911047 0.68157882
vn 0.04794594 -0.71372643 0.69878163
vn 0.04794594 -0.71372643 0.69878163
vn 0.04794594 -0.71372643 0.69878163
vn 0.02939020 -0.72271729 0.69051860
vn 0.02939020 -0.72271729 0.69051860
vn 0.02939020 -0.72271729 0.69051860
vn -0.07888601 -0.72626821 0.68287003
vn -0.07888601 -0.72626821 0.68287003
vn -0.07888601 -0.72626821 0.68287003
vn -0.16654292 -0.68492983 0.70931980
vn -0.16654292 -0.68492983 0.70931980
vn -0.16654292 -0.68492983 0.70931980
vn -0.11560235 -0.73641153 0.66658395
vn -0.11560235 -0.73641153 0.66658395
vn -0.11560235 -0.73641153 0.66658395
vn -0.27108798 -0.66732627 0.69367641
vn -0.27108798 -0.66732627 0.69367641
vn -0.27108798 -0.66732627 0.69367641
vn -0.28363899 -0.66758968 0.68838430
vn -0.28363899 -0.66758968 0.68838430
vn -0.28363899 -0.66758968 0.68838430
vn -0.35527932 -0.63906794 0.68217942
vn -0.35527932 -0.63906794 0.68217942
vn -0.35527932 -0.63906794 0.68217942
vn -0.43139692 -0.55975822 0.70750790
vn -0.43139692 -0.55975822 0.70750790
vn -0.43139692 -0.55975822 0.70750790
vn -0.42667159 -0.57145361 0.70099367
vn -0.42667159 -0.57145361 0.70099367
vn -0.42667159 -0.57145361 0.70099367
vn -0.52576448 -0.50969437 0.68101641
vn -0.52576448 -0.50969437 0.68101641
vn -0.52576448 -0.50969437 0.68101641
vn 0.39206057 -0.59245266 0.70376726
vn 0.39206057 -0.59245266 0.70376726
vn 0.39206057 -0.59245266 0.70376726
vn 0.40026310 -0.59161101 0.69984703
vn 0.40026310 -0.59161101 0.69984703
vn 0.40026310 -0.59161101 0.69984703
vn 0.49767163 -0.53651948 0.68152021
vn 0.49767163 -0.53651948 0.68152021
vn 0.49767163 -0.53651948 0.68152021
vn 0.54473785 -0.46802398 0.69585504
vn 0.54473785 -0.46802398 0.69585504
vn 0.54473785 -0.46802398 0.69585504
vn 0.54090720 -0.48306123 0.68852832
vn 0.54090720 -0.48306123 0.68852832
vn 0.54090720 -0.48306123 0.68852832
vn 0.64466329 -0.35746647 0.67574179
vn 0.64466329 -0.35746647 0.67574179
vn 0.64466329 -0.35746647 0.67574179
vn 0.60169204 -0.38397771 0.70037690
vn 0.60169204 -0.38397771 0.70037690
vn 0.60169204 -0.38397771 0.70037690
vn 0.67260104 -0.29558499 0.67840795
vn 0.67260104 -0.29558499 0.67840795
vn 0.67260104 -0.29558499 0.67840795
vn 0.69497310 -0.20211512 0.69004483
vn 0.69497310 -0.20211512 0.69004483
vn 0.69497310 -0.20211512 0.69004483
vn 0.68978961 -0.16855414 0.70411632
vn 0.68978961 -0.16855414 0.70411632
vn 0.68978961 -0.16855414 0.70411632
vn 0.72462804 -0.09761885 0.68219115
vn 0.72462804 -0.09761885 0.68219115
vn 0.72462804 -0.09761885 0.68219115
vn 0.70234908 0.20214289 0.68252767
vn 0.70234908 0.20214289 0.68252767
vn 0.70234908 0.20214289 0.68252767
vn 0.71557506 0.08756846 0.69302532
vn 0.71557506 0.08756846 0.69302532
vn 0.71557506 0.08756846 0.69302532
vn 0.70560276 0.05561958 0.70642141
vn 0.70560276 0.05561958 0.70642141
vn 0.70560276 0.05561958 0.70642141
vn 0.72528797 0.00784314 0.68840093
vn 0.72528797 0.00784314 0.68840093
vn 0.72528797 0.00784314 0.68840093
vn -0.07616138 0.72042357 0.68933978
vn -0.07616138 0.72042357 0.68933978
vn -0.07616138 0.72042357 0.68933978
vn -0.04787357 0.71150696 0.70104634
vn -0.04787357 0.71150696 0.70104634
vn -0.04787357 0.71150696 0.70104634
vn 0.03349572 0.72509566 0.68783306
vn 0.03349572 0.72509566 0.68783306
vn 0.03349572 0.72509566 0.68783306
vn 0.09115163 0.70804803 0.70025664
vn 0.09115163 0.70804803 0.70025664
vn 0.09115163 0.70804803 0.70025664
vn 0.13438088 0.71698210 0.68401641
vn 0.13438088 0.71698210 0.68401641
vn 0.13438088 0.71698210 0.68401641
vn 0.21955481 0.70127063 0.67824419
vn 0.21955481 0.70127063 0.67824419
vn 0.21955481 0.70127063 0.67824419
vn 0.27028246 0.66611012 0.69515804
vn 0.27028246 0.66611012 0.69515804
vn 0.27028246 0.66611012 0.69515804
vn 0.32322792 0.65635467 0.68170541
vn 0.32322792 0.65635467 0.68170541
vn 0.32322792 0.65635467 0.68170541
vn 0.40249132 0.60275412 0.68897620
vn 0.40249132 0.60275412 0.68897620
vn 0.40249132 0.60275412 0.68897620
vn 0.41759739 0.57988388 0.69953349
vn 0.41759739 0.57988388 0.69953349
vn 0.41759739 0.57988388 0.69953349
vn 0.49379564 0.53803846 0.68314017
vn 0.49379564 0.53803846 0.68314017
vn 0.49379564 0.53803846 0.68314017
vn 0.55364005 0.45031438 0.70049958
vn 0.55364005 0.45031438 0.70049958
vn 0.55364005 0.45031438 0.70049958
vn 0.55164699 0.45879487 0.69655787
vn 0.55164699 0.45879487 0.69655787
vn 0.55164699 0.45879487 0.69655787
vn 0.61703385 0.39736655 0.67924153
vn 0.61703385 0.39736655 0.67924153
vn 0.61703385 0.39736655 0.67924153
vn 0.66156626 0.29310032 0.69023351
vn 0.66156626 0.29310032 0.69023351
vn 0.66156626 0.29310032 0.69023351
vn 0.66203155 0.26119726 0.70248859
vn 0.66203155 0.26119726 0.70248859
vn 0.66203155 0.26119726 0.70248859
vn -0.67987677 0.25718326 0.68674912
vn -0.67987677 0.25718326 0.68674912
vn -0.67987677 0.25718326 0.68674912
vn -0.64084874 0.30383417 0.70498064
vn -0.64084874 0.30383417 0.70498064
vn -0.64084874 0.30383417 0.70498064
vn -0.64021580 0.32950268 0.69393927
vn -0.64021580 0.32950268 0.69393927
vn -0.64021580 0.32950268 0.69393927
vn -0.59374395 0.43582087 0.67640837
vn -0.59374395 0.43582087 0.67640837
vn -0.59374395 0.43582087 0.67640837
vn -0.51900187 0.49682442 0.69555917
vn -0.51900187 0.49682442 0.69555917
vn -0.51900187 0.49682442 0.69555917
vn -0.54247386 0.48944784 0.68276125
vn -0.54247386 0.48944784 0.68276125
vn -0.54247386 0.48944784 0.68276125
vn -0.44108953 0.57622941 0.68804047
vn -0.44108953 0.57622941 0.68804047
vn -0.44108953 0.57622941 0.68804047
vn -0.40387938 0.58782977 0.70095478
vn -0.40387938 0.58782977 0.70095478
vn -0.40387938 0.58782977 0.70095478
vn -0.35684833 0.63677019 0.68350786
vn -0.35684833 0.63677019 0.68350786
vn -0.35684833 0.63677019 0.68350786
vn -0.28091945 0.66849234 0.68862345
vn -0.28091945 0.66849234 0.68862345
vn -0.28091945 0.66849234 0.68862345
vn -0.23039780 0.66742992 0.70813427
vn -0.23039780 0.66742992 0.70813427
vn -0.23039780 0.66742992 0.70813427
vn -0.17628439 0.70542864 0.68650874
vn -0.17628439 0.70542864 0.68650874
vn -0.17628439 0.70542864 0.68650874
vn -0.57740538 -0.42184379 0.69903565
vn -0.57740538 -0.42184379 0.69903565
vn -0.57740538 -0.42184379 0.69903565
vn -0.57423031 -0.44731675 0.68568744
vn -0.57423031 -0.44731675 0.68568744
vn -0.57423031 -0.44731675 0.68568744
vn -0.64911604 -0.32954690 0.68559989
vn -0.64911604 -0.32954690 0.68559989
vn -0.64911604 -0.32954690 0.68559989
vn -0.65647587 -0.28631159 0.69790050
vn -0.65647587 -0.28631159 0.69790050
vn -0.65647587 -0.28631159 0.69790050
vn -0.67987407 -0.25736748 0.68668277
vn -0.67987407 -0.25736748 0.68668277
vn -0.67987407 -0.25736748 0.68668277
vn -0.70857927 -0.15498884 0.68839950
vn -0.70857927 -0.15498884 0.68839950
vn -0.70857927 -0.15498884 0.68839950
vn -0.70008485 -0.10458734 0.70635876
vn -0.70008485 -0.10458734 0.70635876
vn -0.70008485 -0.10458734 0.70635876
vn -0.72723261 -0.04848271 0.68467668
vn -0.72723261 -0.04848271 0.68467668
vn -0.72723261 -0.04848271 0.68467668
vn -0.73108614 0.04709810 0.68065764
vn -0.73108614 0.04709810 0.68065764
vn -0.73108614 0.04709810 0.68065764
vn -0.70129506 0.12028449 0.70264990
vn -0.70129506 0.12028449 0.70264990
vn -0.70129506 0.12028449 0.70264990
vn -0.70765254 0.15671080 0.68896270
vn -0.70765254 0.15671080 0.68896270
vn -0.70765254 0.15671080 0.68896270
vn 0.82715022 0.37282656 0.42050311
vn 0.82715022 0.37282656 0.42050311
vn 0.82715022 0.37282656 0.42050311
vn 0.83187771 0.17242199 0.52749420
vn 0.83187771 0.17242199 0.52749420
vn 0.83187771 0.17242199 0.52749420
vn 0.92812279 0.06682995 0.36622650
vn 0.92812279 0.06682995 0.36622650
vn 0.92812279 0.06682995 0.36622650
vn 0.85010886 -0.03953847 0.52512060
vn 0.85010886 -0.03953847 0.52512060
vn 0.85010886 -0.03953847 0.52512060
vn 0.71453507 -0.55618520 0.42437914
vn 0.71453507 -0.55618520 0.42437914
vn 0.71453507 -0.55618520 0.42437914
vn 0.56735779 -0.64058177 0.51745544
vn 0.56735779 -0.64058177 0.51745544
vn 0.56735779 -0.64058177 0.51745544
vn 0.49208796 -0.76307116 0.41901294
vn 0.49208796 -0.76307116 0.41901294
vn 0.49208796 -0.76307116 0.41901294
vn 0.22899947 -0.91349710 0.33627711
vn 0.22899947 -0.91349710 0.33627711
vn 0.22899947 -0.91349710 0.33627711
vn -0.28229210 -0.85797769 0.42916833
vn -0.28229210 -0.85797769 0.42916833
vn -0.28229210 -0.85797769 0.42916833
vn -0.40948312 -0.75148537 0.51729422
vn -0.40948312 -0.75148537 0.51729422
vn -0.40948312 -0.75148537 0.51729422
vn -0.55630009 -0.72098678 0.41316857
vn -0.55630009 -0.72098678 0.41316857
vn -0.55630009 -0.72098678 0.41316857
vn -0.78183369 -0.52479658 0.33663723
vn -0.78183369 -0.52479658 0.33663723
vn -0.78183369 -0.52479658 0.33663723
vn -0.81311240 0.41010313 0.41311456
vn -0.81311240 0.41010313 0.41311456
vn -0.81311240 0.41010313 0.41311456
vn -0.66371737 0.66839483 0.33574932
vn -0.66371737 0.66839483 0.33574932
vn -0.66371737 0.66839483 0.33574932
vn -0.05866111 0.87341805 0.48342506
vn -0.05866111 0.87341805 0.48342506
vn -0.05866111 0.87341805 0.48342506
vn 0.10828389 0.87502878 0.47180423
vn 0.10828389 0.87502878 0.47180423
vn 0.10828389 0.87502878 0.47180423
vn 0.40760816 0.84841538 0.33770835
vn 0.40760816 0.84841538 0.33770835
vn 0.40760816 0.84841538 0.33770835
vn 0.87646150 -0.20728457 0.43456686
vn 0.87646150 -0.20728457 0.43456686
vn 0.87646150 -0.20728457 0.43456686
vn 0.85594164 -0.31555430 0.40962104
vn 0.85594164 -0.31555430 0.40962104
vn 0.85594164 -0.31555430 0.40962104
vn 0.90397074 -0.26608917 0.33471397
vn 0.90397074 -0.26608917 0.33471397
vn 0.90397074 -0.26608917 0.33471397
vn 0.84284067 -0.48570398 0.23175688
vn 0.84284067 -0.48570398 0.23175688
vn 0.84284067 -0.48570398 0.23175688
vn 0.71528750 -0.61856861 0.32517175
vn 0.71528750 -0.61856861 0.32517175
vn 0.71528750 -0.61856861 0.32517175
vn 0.12697863 -0.89453528 0.42858261
vn 0.12697863 -0.89453528 0.42858261
vn 0.12697863 -0.89453528 0.42858261
vn 0.33211013 -0.78739838 0.51933289
vn 0.33211013 -0.78739838 0.51933289
vn 0.33211013 -0.78739838 0.51933289
vn 0.49459484 -0.75198106 0.43577567
vn 0.49459484 -0.75198106 0.43577567
vn 0.49459484 -0.75198106 0.43577567
vn 0.11243112 -0.91176615 0.39502118
vn 0.11243112 -0.91176615 0.39502118
vn 0.11243112 -0.91176615 0.39502118
vn -0.04898597 -0.85460575 0.51696169
vn -0.04898597 -0.85460575 0.51696169
vn -0.04898597 -0.85460575 0.51696169
vn -0.28988373 -0.86177904 0.41629834
vn -0.28988373 -0.86177904 0.41629834
vn -0.28988373 -0.86177904 0.41629834
vn -0.21550537 -0.91257279 0.34751738
vn -0.21550537 -0.91257279 0.34751738
vn -0.21550537 -0.91257279 0.34751738
vn -0.79918452 -0.42408910 0.42597246
vn -0.79918452 -0.42408910 0.42597246
vn -0.79918452 -0.42408910 0.42597246
vn -0.62882275 -0.57859058 0.51943708
vn -0.62882275 -0.57859058 0.51943708
vn -0.62882275 -0.57859058 0.51943708
vn -0.54027144 -0.71911949 0.43700564
vn -0.54027144 -0.71911949 0.43700564
vn -0.54027144 -0.71911949 0.43700564
vn -0.81607683 -0.41767322 0.39945925
vn -0.81607683 -0.41767322 0.39945925
vn -0.81607683 -0.41767322 0.39945925
vn -0.81868017 -0.25347622 0.51527913
vn -0.81868017 -0.25347622 0.51527913
vn -0.81868017 -0.25347622 0.51527913
vn -0.89233451 -0.12137263 0.43475028
vn -0.89233451 -0.12137263 0.43475028
vn -0.89233451 -0.12137263 0.43475028
vn -0.90392769 0.11427756 0.41213513
vn -0.90392769 0.11427756 0.41213513
vn -0.90392769 0.11427756 0.41213513
vn -0.93485953 -0.08816528 0.34389612
vn -0.93485953 -0.08816528 0.34389612
vn -0.93485953 -0.08816528 0.34389612
vn -0.81449370 0.25781902 0.51973971
vn -0.81449370 0.25781902 0.51973971
vn -0.81449370 0.25781902 0.51973971
vn -0.89498219 0.10461062 0.43366288
vn -0.89498219 0.10461062 0.43366288
vn -0.89498219 0.10461062 0.43366288
vn -0.56755003 0.71188565 0.41364934
vn -0.56755003 0.71188565 0.41364934
vn -0.56755003 0.71188565 0.41364934
vn -0.68989437 0.50413678 0.51951117
vn -0.68989437 0.50413678 0.51951117
vn -0.68989437 0.50413678 0.51951117
vn -0.81085419 0.40295114 0.42443593
vn -0.81085419 0.40295114 0.42443593
vn -0.81085419 0.40295114 0.42443593
vn -0.56578713 0.72166300 0.39885766
vn -0.56578713 0.72166300 0.39885766
vn -0.56578713 0.72166300 0.39885766
vn -0.41035373 0.75453240 0.51214321
vn -0.41035373 0.75453240 0.51214321
vn -0.41035373 0.75453240 0.51214321
vn -0.30009903 0.84369508 0.44510581
vn -0.30009903 0.84369508 0.44510581
vn -0.30009903 0.84369508 0.44510581
vn -0.29606956 0.85111836 0.43352088
vn -0.29606956 0.85111836 0.43352088
vn -0.29606956 0.85111836 0.43352088
vn -0.16219163 0.84218822 0.51421092
vn -0.16219163 0.84218822 0.51421092
vn -0.16219163 0.84218822 0.51421092
vn -0.02907279 0.90438969 0.42571594
vn -0.02907279 0.90438969 0.42571594
vn -0.02907279 0.90438969 0.42571594
vn 0.47747993 0.77414069 0.41559488
vn 0.47747993 0.77414069 0.41559488
vn 0.47747993 0.77414069 0.41559488
vn 0.24098915 0.81850867 0.52150531
vn 0.24098915 0.81850867 0.52150531
vn 0.24098915 0.81850867 0.52150531
vn 0.12860660 0.88540979 0.44666526
vn 0.12860660 0.88540979 0.44666526
vn 0.12860660 0.88540979 0.44666526
vn 0.48926775 0.77600623 0.39803441
vn 0.48926775 0.77600623 0.39803441
vn 0.48926775 0.77600623 0.39803441
vn 0.57394552 0.63662389 0.51506948
vn 0.57394552 0.63662389 0.51506948
vn 0.57394552 0.63662389 0.51506948
vn 0.73525316 0.61598681 0.28277737
vn 0.73525316 0.61598681 0.28277737
vn 0.73525316 0.61598681 0.28277737
vn 0.88989159 0.35181881 0.29037299
vn 0.88989159 0.35181881 0.29037299
vn 0.88989159 0.35181881 0.29037299
vn 0.72399373 0.54554445 0.42215439
vn 0.72399373 0.54554445 0.42215439
vn 0.72399373 0.54554445 0.42215439
vn -0.00000000 0.00000004 1.00000000
vn 0.00000239 -0.00000091 1.00000000
vn 0.00010029 -0.00003875 0.99999999
vn 0.00008007 -0.00002170 1.00000000
vn 0.00017018 -0.00001615 0.99999999
vn 0.00000272 -0.00000459 1.00000000
vn 0.00000000 -0.00000449 1.00000000
vn -0.00000000 0.00000004 1.00000000
vn -0.00000000 0.00000004 1.00000000
vn -0.00000000 0.00000004 1.00000000
vn -0.00000000 0.00000004 1.00000000
vn 0.00000171 0.00000196 1.00000000
vn 0.00000000 0.00000004 1.00000000
vn 0.00007080 0.00008121 0.99999999
vn 0.00004469 0.00005598 1.00000000
vn -0.00004717 -0.00023784 0.99999997
vn -0.00012743 -0.00034739 0.99999993
vn -0.00014338 -0.00035736 0.99999993
vn -0.00002850 -0.00020142 0.99999998
vn 0.00003701 -0.00045202 0.99999990
vn -0.00000581 -0.00009335 1.00000000
vn -0.00000162 -0.00000307 1.00000000
vn -0.00000000 0.00000004 1.00000000
vn -0.00005223 0.00009444 0.99999999
vn -0.00005277 0.00007307 1.00000000
vn -0.00011704 0.00011895 0.99999999
vn -0.00020888 0.00019577 0.99999996
vn -0.00016059 0.00011346 0.99999998
vn -0.00033095 0.00015782 0.99999993
vn -0.00009119 0.00005746 0.99999999
vn -0.00000473 0.00000307 1.00000000
vn 0.00000000 0.00000004 1.00000000
vn 0.00000000 0.00000004 1.00000000
vn -0.00000244 -0.00000075 1.00000000
vn -0.00000000 0.00000004 1.00000000
vn -0.00010155 -0.00003443 0.99999999
vn -0.00007539 -0.00003472 1.00000000
vn -0.00014435 -0.00009948 0.99999998
vn -0.00000503 0.00000183 1.00000000
vn -0.00000289 0.00000349 1.00000000
vn 0.00000000 0.00000004 1.00000000
vn 0.00000000 0.00000004 1.00000000
vn 0.00000000 0.00000004 1.00000000
vn -0.00000000 0.00000004 1.00000000
vn -0.00000008 -0.00000252 1.00000000
vn -0.00000000 0.00000004 1.00000000
vn -0.00000235 -0.00010998 0.99999999
vn 0.00000704 -0.00008374 1.00000000
vn 0.00004420 -0.00016993 0.99999998
vn -0.00000343 -0.00000410 1.00000000
vn -0.00000426 -0.00000151 1.00000000
vn -0.00000000 0.00000004 1.00000000
vn -0.00000000 0.00000004 1.00000000
vn -0.00000000 0.00000004 1.00000000
vn 0.00000000 0.00000004 1.00000000
vn -0.09297563 -0.99566641 0.00198334
vn -0.09297563 -0.99566641 0.00198334
vn -0.09297563 -0.99566641 0.00198334
vn -0.41909352 -0.90793956 0.00252429
vn -0.41909352 -0.90793956 0.00252429
vn -0.41909352 -0.90793956 0.00252429
vn -0.30486553 -0.95239529 -0.00046547
vn -0.30486553 -0.95239529 -0.00046547
vn -0.30486553 -0.95239529 -0.00046547
vn -0.48629344 -0.87379541 0.00051054
vn -0.48629344 -0.87379541 0.00051054
vn -0.48629344 -0.87379541 0.00051054
vn -0.73286515 -0.68037384 0.00032912
vn -0.73286515 -0.68037384 0.00032912
vn -0.73286515 -0.68037384 0.00032912
vn -0.68027043 -0.73295875 0.00190051
vn -0.68027043 -0.73295875 0.00190051
vn -0.68027043 -0.73295875 0.00190051
vn -0.61097580 -0.79164927 0.00006747
vn -0.61097580 -0.79164927 0.00006747
vn -0.61097580 -0.79164927 0.00006747
vn -0.88498419 -0.46562094 -0.00035737
vn -0.88498419 -0.46562094 -0.00035737
vn -0.88498419 -0.46562094 -0.00035737
vn -0.83936277 -0.54356657 0.00235172
vn -0.83936277 -0.54356657 0.00235172
vn -0.83936277 -0.54356657 0.00235172
vn -0.96815088 -0.25035522 0.00247926
vn -0.96815088 -0.25035522 0.00247926
vn -0.96815088 -0.25035522 0.00247926
vn -0.95231028 -0.30513040 0.00075369
vn -0.95231028 -0.30513040 0.00075369
vn -0.95231028 -0.30513040 0.00075369
vn -0.99214914 -0.12506007 -0.00024747
vn -0.99214914 -0.12506007 -0.00024747
vn -0.99214914 -0.12506007 -0.00024747
vn -0.99643109 0.08438418 0.00209616
vn -0.99643109 0.08438418 0.00209616
vn -0.99643109 0.08438418 0.00209616
vn -0.99308449 0.11739928 0.00077068
vn -0.99308449 0.11739928 0.00077068
vn -0.99308449 0.11739928 0.00077068
vn -0.90805972 0.41883288 0.00256024
vn -0.90805972 0.41883288 0.00256024
vn -0.90805972 0.41883288 0.00256024
vn -0.95058279 0.31047114 0.00015551
vn -0.95058279 0.31047114 0.00015551
vn -0.95058279 0.31047114 0.00015551
vn -0.79678873 0.60425772 -0.00056967
vn -0.79678873 0.60425772 -0.00056967
vn -0.79678873 0.60425772 -0.00056967
vn -0.89463633 0.44679261 0.00148360
vn -0.89463633 0.44679261 0.00148360
vn -0.89463633 0.44679261 0.00148360
vn -0.63077244 0.77596783 -0.00023506
vn -0.63077244 0.77596783 -0.00023506
vn -0.63077244 0.77596783 -0.00023506
vn -0.70057142 0.71357730 0.00267069
vn -0.70057142 0.71357730 0.00267069
vn -0.70057142 0.71357730 0.00267069
vn -0.41893846 0.90801153 0.00237093
vn -0.41893846 0.90801153 0.00237093
vn -0.41893846 0.90801153 0.00237093
vn -0.47795074 0.87838646 0.00055848
vn -0.47795074 0.87838646 0.00055848
vn -0.47795074 0.87838646 0.00055848
vn -0.34249343 0.93952014 0.00038586
vn -0.34249343 0.93952014 0.00038586
vn -0.34249343 0.93952014 0.00038586
vn -0.07998563 0.99679225 0.00274192
vn -0.07998563 0.99679225 0.00274192
vn -0.07998563 0.99679225 0.00274192
vn -0.18047795 0.98357897 0.00035482
vn -0.18047795 0.98357897 0.00035482
vn -0.18047795 0.98357897 0.00035482
vn -0.03198939 0.99948760 0.00109985
vn -0.03198939 0.99948760 0.00109985
vn -0.03198939 0.99948760 0.00109985
vn 0.29888743 0.95428671 0.00178132
vn 0.29888743 0.95428671 0.00178132
vn 0.29888743 0.95428671 0.00178132
vn 0.11818675 0.99299123 -0.00056202
vn 0.11818675 0.99299123 -0.00056202
vn 0.11818675 0.99299123 -0.00056202
vn 0.34810935 0.93744468 0.00416507
vn 0.34810935 0.93744468 0.00416507
vn 0.34810935 0.93744468 0.00416507
vn 0.37794922 0.92581548 0.00448218
vn 0.37794922 0.92581548 0.00448218
vn 0.37794922 0.92581548 0.00448218
vn 0.51722602 0.85584880 -0.00027831
vn 0.51722602 0.85584880 -0.00027831
vn 0.51722602 0.85584880 -0.00027831
vn 0.66236750 0.74917885 0.00059162
vn 0.66236750 0.74917885 0.00059162
vn 0.66236750 0.74917885 0.00059162
vn 0.71079320 0.70339658 0.00250361
vn 0.71079320 0.70339658 0.00250361
vn 0.71079320 0.70339658 0.00250361
vn 0.79762651 0.60315146 -0.00052403
vn 0.79762651 0.60315146 -0.00052403
vn 0.79762651 0.60315146 -0.00052403
vn 0.90372686 0.42810605 0.00172604
vn 0.90372686 0.42810605 0.00172604
vn 0.90372686 0.42810605 0.00172604
vn 0.91105886 0.41227504 0.00102130
vn 0.91105886 0.41227504 0.00102130
vn 0.91105886 0.41227504 0.00102130
vn 0.97846024 0.20643535 0.00002100
vn 0.97846024 0.20643535 0.00002100
vn 0.97846024 0.20643535 0.00002100
vn 0.99206762 0.12568154 0.00244631
vn 0.99206762 0.12568154 0.00244631
vn 0.99206762 0.12568154 0.00244631
vn 0.97366876 -0.22796736 -0.00015363
vn 0.97366876 -0.22796736 -0.00015363
vn 0.97366876 -0.22796736 -0.00015363
vn 0.99250954 -0.12215491 0.00173115
vn 0.99250954 -0.12215491 0.00173115
vn 0.99250954 -0.12215491 0.00173115
vn 0.99829747 -0.05832773 0.00021089
vn 0.99829747 -0.05832773 0.00021089
vn 0.99829747 -0.05832773 0.00021089
vn 0.90358106 -0.42841471 0.00145240
vn 0.90358106 -0.42841471 0.00145240
vn 0.90358106 -0.42841471 0.00145240
vn 0.90909660 -0.41658437 0.00091008
vn 0.90909660 -0.41658437 0.00091008
vn 0.90909660 -0.41658437 0.00091008
vn 0.71061746 -0.70357458 0.00237241
vn 0.71061746 -0.70357458 0.00237241
vn 0.71061746 -0.70357458 0.00237241
vn 0.79652062 -0.60461100 -0.00066528
vn 0.79652062 -0.60461100 -0.00066528
vn 0.79652062 -0.60461100 -0.00066528
vn 0.66982306 -0.74252033 0.00079663
vn 0.66982306 -0.74252033 0.00079663
vn 0.66982306 -0.74252033 0.00079663
vn 0.39271608 -0.91965969 0.00036251
vn 0.39271608 -0.91965969 0.00036251
vn 0.39271608 -0.91965969 0.00036251
vn 0.45675181 -0.88959213 0.00190451
vn 0.45675181 -0.88959213 0.00190451
vn 0.45675181 -0.88959213 0.00190451
vn 0.53607951 -0.84416749 0.00010486
vn 0.53607951 -0.84416749 0.00010486
vn 0.53607951 -0.84416749 0.00010486
vn -0.07165243 -0.99742904 0.00111720
vn -0.07165243 -0.99742904 0.00111720
vn -0.07165243 -0.99742904 0.00111720
vn 0.13777271 -0.99046382 -0.00031799
vn 0.13777271 -0.99046382 -0.00031799
vn 0.13777271 -0.99046382 -0.00031799
vn 0.22335073 -0.97473538 0.00232169
vn 0.22335073 -0.97473538 0.00232169
vn 0.22335073 -0.97473538 0.00232169
f 1//1 2//2 3//3
f 4//4 5//5 6//6
f 7//7 8//8 9//9
f 10//10 11//11 12//12
f 13//13 14//14 15//15
f 16//16 17//17 18//18
f 19//19 20//20 21//21
f 22//22 23//23 24//24
f 25//25 26//26 27//27
f 28//28 29//29 30//30
f 31//31 32//32 33//33
f 34//34 35//35 36//36
f 37//37 38//38 39//39
f 40//40 41//41 42//42
f 43//43 44//44 45//45
f 46//46 47//47 48//48
f 49//49 50//50 51//51
f 52//52 53//53 54//54
f 55//55 56//56 57//57
f 58//58 59//59 60//60
f 61//61 62//62 63//63
f 64//64 65//65 66//66
f 67//67 68//68 69//69
f 70//70 71//71 72//72
f 73//73 74//74 75//75
f 76//76 77//77 78//78
f 79//79 80//80 81//81
f 82//82 83//83 84//84
f 85//85 86//86 87//87
f 88//88 89//89 90//90
f 91//91 92//92 93//93
f 94//94 95//95 96//96
f 97//97 98//98 99//99
f 100//100 101//101 102//102
f 103//103 104//104 105//105
f 106//106 107//107 108//108
f 109//109 110//110 111//111
f 112//112 113//113 114//114
f 115//115 116//116 117//117
f 118//118 119//119 120//120
f 121//121 122//122 123//123
f 124//124 125//125 126//126
f 127//127 128//128 129//129
f 130//130 131//131 132//132
f 133//133 134//134 135//135
f 136//136 137//137 138//138
f 139//139 140//140 141//141
f 142//142 143//143 144//144
f 145//145 146//146 147//147
f 148//148 149//149 150//150
f 151//151 152//152 153//153
f 154//154 155//155 156//156
f 157//157 158//158 159//159
f 160//160 161//161 162//162
f 163//163 164//164 165//165
f 166//166 167//167 168//168
f 169//169 170//170 171//171
f 172//172 173//173 174//174
f 175//175 176//176 177//177
f 178//178 179//179 180//180
f 181//181 182//182 183//183
f 184//184 185//185 186//186
f 187//187 188//188 189//189
f 190//190 191//191 192//192
f 193//193 194//194 195//195
f 196//196 197//197 198//198
f 199//199 200//200 201//201
f 202//202 203//203 204//204
f 205//205 206//206 207//207
f 208//208 209//209 210//210
f 211//211 212//212 213//213
f 214//214 215//215 216//216
f 217//217 218//218 219//219
f 220//220 221//221 222//222
f 223//223 224//224 225//225
f 226//226 227//227 228//228
f 229//229 230//230 231//231
f 232//232 233//233 234//234
f 235//235 236//236 237//237
f 238//238 239//239 240//240
f 241//241 242//242 243//243
f 244//244 245//245 246//246
f 247//247 248//248 249//249
f 250//250 251//251 252//252
f 253//253 254//254 255//255
f 256//256 257//257 258//258
f 259//259 260//260 261//261
f 262//262 263//263 264//264
f 265//265 266//266 267//267
f 268//268 269//269 270//270
f 271//271 272//272 273//273
f 274//274 275//275 276//276
f 277//277 278//278 279//279
f 280//280 281//281 282//282
f 283//283 284//284 285//285
f 286//286 287//287 288//288
f 289//289 290//290 291//291
f 292//292 293//293 294//294
f 295//295 296//296 297//297
f 298//298 299//299 300//300
f 301//301 302//302 303//303
f 304//304 305//305 306//306
f 307//307 308//308 309//309
f 310//310 311//311 312//312
f 313//313 314//314 315//315
f 316//316 317//317 318//318
f 319//319 320//320 321//321
f 322//322 323//323 324//324
f 325//325 326//326 327//327
f 328//328 329//329 330//330
f 331//331 332//332 333//333
f 334//334 335//335 336//336
f 337//337 338//338 339//339
f 340//340 341//341 342//342
f 343//343 344//344 345//345
f 346//346 347//347 348//348
f 349//349 350//350 351//351
f 352//352 353//353 354//354
f 355//355 356//356 357//357
f 358//358 359//359 360//360
f 361//361 362//362 363//363
f 364//364 365//365 366//366
f 367//367 368//368 369//369
f 370//370 371//371 372//372
f 373//373 374//374 375//375
f 376//376 377//377 378//378
f 379//379 380//380 381//381
f 382//382 383//383 384//384
f 385//385 386//386 387//387
f 388//388 389//389 390//390
f 391//391 392//392 393//393
f 394//394 395//395 396//396
f 397//397 398//398 399//399
f 400//400 401//401 402//402
f 403//403 404//404 405//405
f 406//406 407//407 408//408
f 409//409 410//410 411//411
f 412//412 413//413 414//414
f 415//415 416//416 417//417
f 418//418 419//419 420//420
f 421//421 422//422 423//423
f 424//424 425//425 426//426
f 427//427 428//428 429//429
f 430//430 431//431 432//432
f 433//433 434//434 435//435
f 436//436 437//437 438//438
f 439//439 440//440 441//441
f 442//442 443//443 444//444
f 445//445 446//446 447//447
f 448//448 449//449 450//450
f 451//451 452//452 453//453
f 454//454 455//455 456//456
f 457//457 458//458 459//459
f 460//460 461//461 462//462
f 463//463 464//464 465//465
f 466//466 467//467 468//468
f 469//469 470//470 471//471
f 472//472 473//473 474//474
f 475//475 476//476 477//477
f 478//478 479//479 480//480
f 481//481 482//482 483//483
f 484//484 485//485 486//486
f 487//487 488//488 489//489
f 490//490 491//491 492//492
f 493//493 494//494 495//495
f 496//496 497//497 498//498
f 499//499 500//500 501//501
f 502//502 503//503 504//504
f 505//505 506//506 507//507
f 508//508 509//509 510//510
f 511//511 512//512 513//513
f 514//514 515//515 516//516
f 517//517 518//518 519//519
f 520//520 521//521 522//522
f 523//523 524//524 525//525
f 526//526 527//527 528//528
f 529//529 530//530 531//531
f 532//532 533//533 534//534
f 535//535 536//536 537//537
f 538//538 539//539 540//540
f 541//541 542//542 543//543
f 544//544 545//545 546//546
f 547//547 548//548 549//549
f 550//550 551//551 552//552
f 553//553 554//554 555//555
f 556//556 557//557 558//558
f 559//559 560//560 561//561
f 562//562 563//563 564//564
f 565//565 566//566 567//567
f 568//568 569//569 570//570
f 571//571 572//572 573//573
f 574//574 575//575 576//576
f 577//577 578//578 579//579
f 580//580 581//581 582//582
f 583//583 584//584 585//585
f 586//586 587//587 588//588
f 589//589 590//590 591//591
f 592//592 593//593 594//594
f 595//595 596//596 597//597
f 598//598 599//599 600//600
f 601//601 602//602 603//603
f 604//604 605//605 606//606
f 607//607 608//608 609//609
f 610//610 611//611 612//612
f 613//613 614//614 615//615
f 616//616 617//617 618//618
f 619//619 620//620 621//621
f 622//622 623//623 624//624
f 625//625 626//626 627//627
f 628//628 629//629 630//630
f 631//631 632//632 633//633
f 634//634 635//635 636//636
f 637//637 638//638 639//639
f 640//640 641//641 642//642
f 643//643 644//644 645//645
f 646//646 647//647 648//648
f 648//648 647//647 649//649
f 648//648 649//649 650//650
f 650//650 649//649 651//651
f 651//651 649//649 652//652
f 651//651 652//652 653//653
f 653//653 652//652 654//654
f 653//653 654//654 655//655
f 655//655 654//654 656//656
f 656//656 654//654 657//657
f 656//656 657//657 658//658
f 658//658 657//657 659//659
f 659//659 657//657 660//660
f 659//659 660//660 661//661
f 661//661 660//660 662//662
f 663//663 662//662 664//664
f 663//663 664//664 665//665
f 665//665 664//664 666//666
f 666//666 664//664 667//667
f 666//666 667//667 668//668
f 668//668 667//667 669//669
f 669//669 667//667 670//670
f 669//669 670//670 671//671
f 671//671 670//670 672//672
f 672//672 670//670 673//673
f 672//672 673//673 674//674
f 674//674 673//673 675//675
f 675//675 673//673 676//676
f 675//675 676//676 677//677
f 677//677 676//676 678//678
f 678//678 676//676 679//679
f 678//678 679//679 680//680
f 680//680 679//679 681//681
f 681//681 679//679 682//682
f 681//681 682//682 683//683
f 683//683 682//682 684//684
f 684//684 682//682 685//685
f 684//684 685//685 686//686
f 686//686 685//685 687//687
f 686//686 687//687 688//688
f 688//688 687//687 689//689
f 689//689 687//687 690//690
f 689//689 690//690 691//691
f 691//691 690//690 692//692
f 692//692 690//690 693//693
f 692//692 693//693 694//694
f 694//694 693//693 695//695
f 695//695 693//693 696//696
f 695//695 696//696 697//697
f 697//697 696//696 698//698
f 697//697 698//698 699//699
f 699//699 698//698 700//700
f 700//700 698//698 647//647
f 700//700 647//647 646//646
f 701//701 702//702 703//703
f 704//704 705//705 706//706
f 707//707 708//708 709//709
f 710//710 711//711 712//712
f 713//713 714//714 715//715
f 716//716 717//717 718//718
f 719//719 720//720 721//721
f 722//722 723//723 724//724
f 725//725 726//726 727//727
f 728//728 729//729 730//730
f 731//731 732//732 733//733
f 734//734 735//735 736//736
f 737//737 738//738 739//739
f 740//740 741//741 742//742
f 743//743 744//744 745//745
f 746//746 747//747 748//748
f 749//749 750//750 751//751
f 752//752 753//753 754//754
f 755//755 756//756 757//757
f 758//758 759//759 760//760
f 761//761 762//762 763//763
f 764//764 765//765 766//766
f 767//767 768//768 769//769
f 770//770 771//771 772//772
f 773//773 774//774 775//775
f 776//776 777//777 778//778
f 779//779 780//780 781//781
f 782//782 783//783 784//784
f 785//785 786//786 787//787
f 788//788 789//789 790//790
f 791//791 792//792 793//793
f 794//794 795//795 796//796
f 797//797 798//798 799//799
f 800//800 801//801 802//802
f 803//803 804//804 805//805
f 806//806 807//807 808//808
f 809//809 810//810 811//811
f 812//812 813//813 814//814
f 815//815 816//816 817//817
f 818//818 819//819 820//820
f 821//821 822//822 823//823
f 824//824 825//825 826//826
f 827//827 828//828 829//829
f 830//830 831//831 832//832
f 833//833 834//834 835//835
f 836//836 837//837 838//838
f 839//839 840//840 841//841
f 842//842 843//843 844//844
f 845//845 846//846 847//847
f 848//848 849//849 850//850
f 851//851 852//852 853//853
f 854//854 855//855 856//856

