# https://github.com/mikedh/trimesh
v -0.07300000 0.00625000 -0.02450000
v -0.07300000 -0.03575000 -0.02450000
v -0.07300000 0.00625000 0.02450000
v -0.07300000 -0.03575000 0.02450000
v 0.07300000 0.00625000 0.02450000
v 0.07300000 -0.01525000 0.02450000
v 0.07300000 0.00625000 -0.02450000
v 0.07300000 -0.01525000 -0.02450000
v 0.07250000 -0.01575000 -0.02500000
v 0.07300000 -0.01525000 -0.02450000
v 0.07300000 -0.01525000 0.02450000
v 0.05250000 -0.03575000 0.02500000
v 0.05200000 -0.03625000 0.02450000
v 0.05200000 -0.03625000 -0.02450000
v 0.07250000 -0.01575000 0.02500000
v 0.05250000 -0.03575000 -0.02500000
v -0.07250000 -0.03625000 0.02450000
v -0.07250000 -0.03625000 -0.02450000
v 0.05200000 -0.03625000 0.02450000
v 0.05200000 -0.03625000 -0.02450000
v 0.00200000 0.00346400 -0.02500000
v 0.00136800 0.00375900 -0.02500000
v 0.07250000 0.00625000 -0.02500000
v 0.00069500 0.00393900 -0.02500000
v 0.00000000 0.00400000 -0.02500000
v -0.07250000 0.00625000 -0.02500000
v -0.00069500 0.00393900 -0.02500000
v -0.00136800 0.00375900 -0.02500000
v -0.00200000 0.00346400 -0.02500000
v -0.00257100 0.00306400 -0.02500000
v -0.00306400 0.00257100 -0.02500000
v -0.00346400 0.00200000 -0.02500000
v -0.00375900 0.00136800 -0.02500000
v -0.00393900 0.00069500 -0.02500000
v -0.00400000 -0.00000000 -0.02500000
v -0.00393900 -0.00069500 -0.02500000
v -0.07250000 -0.03575000 -0.02500000
v -0.00375900 -0.00136800 -0.02500000
v -0.00346400 -0.00200000 -0.02500000
v -0.00306400 -0.00257100 -0.02500000
v -0.00257100 -0.00306400 -0.02500000
v -0.00200000 -0.00346400 -0.02500000
v -0.00136800 -0.00375900 -0.02500000
v -0.00069500 -0.00393900 -0.02500000
v 0.05250000 -0.03575000 -0.02500000
v 0.00000000 -0.00400000 -0.02500000
v 0.00069500 -0.00393900 -0.02500000
v 0.00136800 -0.00375900 -0.02500000
v 0.00200000 -0.00346400 -0.02500000
v 0.07250000 -0.01575000 -0.02500000
v 0.00346400 -0.00200000 -0.02500000
v 0.00400000 -0.00000000 -0.02500000
v 0.00393900 -0.00069500 -0.02500000
v 0.00375900 -0.00136800 -0.02500000
v 0.00393900 0.00069500 -0.02500000
v 0.00375900 0.00136800 -0.02500000
v 0.00346400 0.00200000 -0.02500000
v 0.00257100 -0.00306400 -0.02500000
v 0.00306400 -0.00257100 -0.02500000
v 0.00306400 0.00257100 -0.02500000
v 0.00257100 0.00306400 -0.02500000
v 0.07250000 -0.01575000 0.02500000
v 0.07250000 0.00625000 0.02500000
v 0.05250000 -0.03575000 0.02500000
v -0.07250000 0.00625000 0.02500000
v -0.07250000 -0.03575000 0.02500000
v -0.07250000 -0.03625000 -0.02450000
v -0.07250000 -0.03575000 -0.02500000
v 0.05200000 -0.03625000 -0.02450000
v 0.05250000 -0.03575000 -0.02500000
v -0.07250000 -0.03575000 0.02500000
v -0.07250000 -0.03625000 0.02450000
v 0.05250000 -0.03575000 0.02500000
v 0.05200000 -0.03625000 0.02450000
v -0.07250000 -0.03625000 0.02450000
v -0.07300000 -0.03575000 0.02450000
v -0.07250000 -0.03625000 -0.02450000
v -0.07300000 -0.03575000 -0.02450000
v -0.07250000 -0.03625000 -0.02450000
v -0.07300000 -0.03575000 -0.02450000
v -0.07250000 -0.03575000 -0.02500000
v -0.07250000 -0.03625000 0.02450000
v -0.07250000 -0.03575000 0.02500000
v -0.07300000 -0.03575000 0.02450000
v -0.07250000 -0.03575000 -0.02500000
v -0.07300000 -0.03575000 -0.02450000
v -0.07250000 0.00625000 -0.02500000
v -0.07300000 0.00625000 -0.02450000
v -0.07300000 -0.03575000 0.02450000
v -0.07250000 -0.03575000 0.02500000
v -0.07300000 0.00625000 0.02450000
v -0.07250000 0.00625000 0.02500000
v 0.07300000 -0.01525000 -0.02450000
v 0.07250000 -0.01575000 -0.02500000
v 0.07300000 0.00625000 -0.02450000
v 0.07250000 0.00625000 -0.02500000
v 0.07250000 -0.01575000 0.02500000
v 0.07300000 -0.01525000 0.02450000
v 0.07250000 0.00625000 0.02500000
v 0.07300000 0.00625000 0.02450000
v 0.00000000 0.00400000 -0.02400000
v 0.00000000 0.00400000 -0.02500000
v 0.00069500 0.00393900 -0.02400000
v 0.00069500 0.00393900 -0.02500000
v 0.00069500 0.00393900 -0.02400000
v 0.00069500 0.00393900 -0.02500000
v 0.00136800 0.00375900 -0.02400000
v 0.00136800 0.00375900 -0.02500000
v 0.00136800 0.00375900 -0.02400000
v 0.00136800 0.00375900 -0.02500000
v 0.00200000 0.00346400 -0.02400000
v 0.00200000 0.00346400 -0.02500000
v 0.00200000 0.00346400 -0.02400000
v 0.00200000 0.00346400 -0.02500000
v 0.00257100 0.00306400 -0.02400000
v 0.00257100 0.00306400 -0.02500000
v 0.00257100 0.00306400 -0.02400000
v 0.00257100 0.00306400 -0.02500000
v 0.00306400 0.00257100 -0.02400000
v 0.00306400 0.00257100 -0.02500000
v 0.00306400 0.00257100 -0.02400000
v 0.00306400 0.00257100 -0.02500000
v 0.00346400 0.00200000 -0.02400000
v 0.00346400 0.00200000 -0.02500000
v 0.00346400 0.00200000 -0.02400000
v 0.00346400 0.00200000 -0.02500000
v 0.00375900 0.00136800 -0.02400000
v 0.00375900 0.00136800 -0.02500000
v 0.00375900 0.00136800 -0.02400000
v 0.00375900 0.00136800 -0.02500000
v 0.00393900 0.00069500 -0.02400000
v 0.00393900 0.00069500 -0.02500000
v 0.00393900 0.00069500 -0.02400000
v 0.00393900 0.00069500 -0.02500000
v 0.00400000 -0.00000000 -0.02400000
v 0.00400000 -0.00000000 -0.02500000
v 0.00400000 -0.00000000 -0.02400000
v 0.00400000 -0.00000000 -0.02500000
v 0.00393900 -0.00069500 -0.02400000
v 0.00393900 -0.00069500 -0.02500000
v 0.00393900 -0.00069500 -0.02400000
v 0.00393900 -0.00069500 -0.02500000
v 0.00375900 -0.00136800 -0.02400000
v 0.00375900 -0.00136800 -0.02500000
v 0.00375900 -0.00136800 -0.02400000
v 0.00375900 -0.00136800 -0.02500000
v 0.00346400 -0.00200000 -0.02400000
v 0.00346400 -0.00200000 -0.02500000
v 0.00346400 -0.00200000 -0.02400000
v 0.00346400 -0.00200000 -0.02500000
v 0.00306400 -0.00257100 -0.02400000
v 0.00306400 -0.00257100 -0.02500000
v 0.00306400 -0.00257100 -0.02400000
v 0.00306400 -0.00257100 -0.02500000
v 0.00257100 -0.00306400 -0.02400000
v 0.00257100 -0.00306400 -0.02500000
v 0.00257100 -0.00306400 -0.02400000
v 0.00257100 -0.00306400 -0.02500000
v 0.00200000 -0.00346400 -0.02400000
v 0.00200000 -0.00346400 -0.02500000
v 0.00200000 -0.00346400 -0.02400000
v 0.00200000 -0.00346400 -0.02500000
v 0.00136800 -0.00375900 -0.02400000
v 0.00136800 -0.00375900 -0.02500000
v 0.00136800 -0.00375900 -0.02400000
v 0.00136800 -0.00375900 -0.02500000
v 0.00069500 -0.00393900 -0.02400000
v 0.00069500 -0.00393900 -0.02500000
v 0.00069500 -0.00393900 -0.02400000
v 0.00069500 -0.00393900 -0.02500000
v 0.00000000 -0.00400000 -0.02400000
v 0.00000000 -0.00400000 -0.02500000
v 0.00000000 -0.00400000 -0.02400000
v 0.00000000 -0.00400000 -0.02500000
v -0.00069500 -0.00393900 -0.02400000
v -0.00069500 -0.00393900 -0.02500000
v -0.00069500 -0.00393900 -0.02400000
v -0.00069500 -0.00393900 -0.02500000
v -0.00136800 -0.00375900 -0.02400000
v -0.00136800 -0.00375900 -0.02500000
v -0.00136800 -0.00375900 -0.02400000
v -0.00136800 -0.00375900 -0.02500000
v -0.00200000 -0.00346400 -0.02400000
v -0.00200000 -0.00346400 -0.02500000
v -0.00200000 -0.00346400 -0.02400000
v -0.00200000 -0.00346400 -0.02500000
v -0.00257100 -0.00306400 -0.02400000
v -0.00257100 -0.00306400 -0.02500000
v -0.00257100 -0.00306400 -0.02400000
v -0.00257100 -0.00306400 -0.02500000
v -0.00306400 -0.00257100 -0.02400000
v -0.00306400 -0.00257100 -0.02500000
v -0.00306400 -0.00257100 -0.02400000
v -0.00306400 -0.00257100 -0.02500000
v -0.00346400 -0.00200000 -0.02400000
v -0.00346400 -0.00200000 -0.02500000
v -0.00346400 -0.00200000 -0.02400000
v -0.00346400 -0.00200000 -0.02500000
v -0.00375900 -0.00136800 -0.02400000
v -0.00375900 -0.00136800 -0.02500000
v -0.00375900 -0.00136800 -0.02400000
v -0.00375900 -0.00136800 -0.02500000
v -0.00393900 -0.00069500 -0.02400000
v -0.00393900 -0.00069500 -0.02500000
v -0.00393900 -0.00069500 -0.02400000
v -0.00393900 -0.00069500 -0.02500000
v -0.00400000 -0.00000000 -0.02400000
v -0.00400000 -0.00000000 -0.02500000
v -0.00400000 -0.00000000 -0.02400000
v -0.00400000 -0.00000000 -0.02500000
v -0.00393900 0.00069500 -0.02400000
v -0.00393900 0.00069500 -0.02500000
v -0.00393900 0.00069500 -0.02400000
v -0.00393900 0.00069500 -0.02500000
v -0.00375900 0.00136800 -0.02400000
v -0.00375900 0.00136800 -0.02500000
v -0.00375900 0.00136800 -0.02400000
v -0.00375900 0.00136800 -0.02500000
v -0.00346400 0.00200000 -0.02400000
v -0.00346400 0.00200000 -0.02500000
v -0.00346400 0.00200000 -0.02400000
v -0.00346400 0.00200000 -0.02500000
v -0.00306400 0.00257100 -0.02400000
v -0.00306400 0.00257100 -0.02500000
v -0.00306400 0.00257100 -0.02400000
v -0.00306400 0.00257100 -0.02500000
v -0.00257100 0.00306400 -0.02400000
v -0.00257100 0.00306400 -0.02500000
v -0.00257100 0.00306400 -0.02400000
v -0.00257100 0.00306400 -0.02500000
v -0.00200000 0.00346400 -0.02400000
v -0.00200000 0.00346400 -0.02500000
v -0.00200000 0.00346400 -0.02400000
v -0.00200000 0.00346400 -0.02500000
v -0.00136800 0.00375900 -0.02400000
v -0.00136800 0.00375900 -0.02500000
v -0.00136800 0.00375900 -0.02400000
v -0.00136800 0.00375900 -0.02500000
v -0.00069500 0.00393900 -0.02400000
v -0.00069500 0.00393900 -0.02500000
v -0.00069500 0.00393900 -0.02400000
v -0.00069500 0.00393900 -0.02500000
v 0.00000000 0.00400000 -0.02400000
v 0.00000000 0.00400000 -0.02500000
v -0.00136800 0.00375900 -0.02400000
v -0.00069500 0.00393900 -0.02400000
v 0.00000000 -0.00000000 -0.02400000
v 0.00000000 0.00400000 -0.02400000
v 0.00069500 0.00393900 -0.02400000
v -0.00306400 0.00257100 -0.02400000
v -0.00257100 0.00306400 -0.02400000
v -0.00200000 0.00346400 -0.02400000
v -0.00393900 0.00069500 -0.02400000
v -0.00375900 0.00136800 -0.02400000
v -0.00346400 0.00200000 -0.02400000
v -0.00375900 -0.00136800 -0.02400000
v -0.00393900 -0.00069500 -0.02400000
v -0.00400000 -0.00000000 -0.02400000
v -0.00257100 -0.00306400 -0.02400000
v -0.00306400 -0.00257100 -0.02400000
v -0.00346400 -0.00200000 -0.02400000
v -0.00069500 -0.00393900 -0.02400000
v -0.00136800 -0.00375900 -0.02400000
v -0.00200000 -0.00346400 -0.02400000
v 0.00136800 -0.00375900 -0.02400000
v 0.00069500 -0.00393900 -0.02400000
v 0.00000000 -0.00400000 -0.02400000
v 0.00306400 -0.00257100 -0.02400000
v 0.00257100 -0.00306400 -0.02400000
v 0.00200000 -0.00346400 -0.02400000
v 0.00393900 -0.00069500 -0.02400000
v 0.00375900 -0.00136800 -0.02400000
v 0.00346400 -0.00200000 -0.02400000
v 0.00375900 0.00136800 -0.02400000
v 0.00393900 0.00069500 -0.02400000
v 0.00400000 -0.00000000 -0.02400000
v 0.00257100 0.00306400 -0.02400000
v 0.00306400 0.00257100 -0.02400000
v 0.00346400 0.00200000 -0.02400000
v 0.00136800 0.00375900 -0.02400000
v 0.00200000 0.00346400 -0.02400000
v -0.07000000 0.00725000 0.02200000
v 0.07000000 0.00725000 0.02200000
v 0.07250000 0.00725000 0.02500000
v 0.07000000 0.00725000 -0.02200000
v -0.07000000 0.00725000 -0.02200000
v -0.07250000 0.00725000 -0.02500000
v 0.07250000 0.00725000 -0.02500000
v 0.07300000 0.00725000 -0.02450000
v 0.07300000 0.00725000 0.02450000
v -0.07250000 0.00725000 0.02500000
v -0.07300000 0.00725000 0.02450000
v -0.07300000 0.00725000 -0.02450000
v 0.07000000 0.00625000 -0.02200000
v 0.07000000 0.00625000 0.02200000
v 0.07300000 0.00625000 0.02450000
v -0.07000000 0.00625000 0.02200000
v -0.07250000 0.00625000 0.02500000
v 0.07250000 0.00625000 0.02500000
v 0.07300000 0.00625000 -0.02450000
v 0.07250000 0.00625000 -0.02500000
v -0.07000000 0.00625000 -0.02200000
v -0.07250000 0.00625000 -0.02500000
v -0.07300000 0.00625000 -0.02450000
v -0.07300000 0.00625000 0.02450000
v -0.07000000 0.00725000 0.02200000
v -0.07000000 0.00725000 -0.02200000
v -0.07000000 0.00625000 0.02200000
v -0.07000000 0.00625000 -0.02200000
v 0.07000000 0.00725000 0.02200000
v -0.07000000 0.00725000 0.02200000
v 0.07000000 0.00625000 0.02200000
v -0.07000000 0.00625000 0.02200000
v 0.07000000 0.00725000 -0.02200000
v 0.07000000 0.00725000 0.02200000
v 0.07000000 0.00625000 -0.02200000
v 0.07000000 0.00625000 0.02200000
v -0.07000000 0.00725000 -0.02200000
v 0.07000000 0.00725000 -0.02200000
v -0.07000000 0.00625000 -0.02200000
v 0.07000000 0.00625000 -0.02200000
v -0.07250000 0.03625000 0.02500000
v 0.07250000 0.03625000 0.02500000
v -0.07250000 0.03625000 -0.02500000
v 0.07250000 0.03625000 -0.02500000
v -0.07300000 0.03575000 0.02450000
v -0.07250000 0.03625000 0.02500000
v -0.07300000 0.03575000 -0.02450000
v -0.07250000 0.03625000 -0.02500000
v 0.07250000 0.03625000 0.02500000
v 0.07300000 0.03575000 0.02450000
v 0.07250000 0.03625000 -0.02500000
v 0.07300000 0.03575000 -0.02450000
v -0.07250000 0.00725000 0.02500000
v -0.07250000 0.03625000 0.02500000
v -0.07300000 0.00725000 0.02450000
v -0.07300000 0.03575000 0.02450000
v 0.07300000 0.00725000 0.02450000
v 0.07300000 0.03575000 0.02450000
v 0.07250000 0.00725000 0.02500000
v 0.07250000 0.03625000 0.02500000
v 0.07250000 0.03625000 0.02500000
v -0.07250000 0.03625000 0.02500000
v 0.07250000 0.00725000 0.02500000
v -0.07250000 0.00725000 0.02500000
v -0.07300000 0.00725000 -0.02450000
v -0.07300000 0.03575000 -0.02450000
v -0.07250000 0.00725000 -0.02500000
v -0.07250000 0.03625000 -0.02500000
v 0.07250000 0.00725000 -0.02500000
v 0.07250000 0.03625000 -0.02500000
v 0.07300000 0.00725000 -0.02450000
v 0.07300000 0.03575000 -0.02450000
v -0.07250000 0.00725000 -0.02500000
v -0.07250000 0.03625000 -0.02500000
v 0.07250000 0.00725000 -0.02500000
v 0.07250000 0.03625000 -0.02500000
v 0.07300000 0.03575000 -0.02450000
v 0.07300000 0.03575000 0.02450000
v 0.07300000 0.00725000 -0.02450000
v 0.07300000 0.00725000 0.02450000
v -0.07300000 0.03575000 0.02450000
v -0.07300000 0.03575000 -0.02450000
v -0.07300000 0.00725000 0.02450000
v -0.07300000 0.00725000 -0.02450000
vn -1.00000000 0.00000000 0.00000000
vn -1.00000000 0.00000000 0.00000000
vn -1.00000000 0.00000000 0.00000000
vn -1.00000000 0.00000000 0.00000000
vn 1.00000000 0.00000000 0.00000000
vn 1.00000000 0.00000000 0.00000000
vn 1.00000000 0.00000000 0.00000000
vn 1.00000000 0.00000000 0.00000000
vn 0.70710655 -0.70710701 0.00000000
vn 0.70710612 -0.70710744 0.00000000
vn 0.70710612 -0.70710744 0.00000000
vn 0.70710680 -0.70710676 0.00000000
vn 0.70710678 -0.70710678 0.00000000
vn 0.70710678 -0.70710678 0.00000000
vn 0.70710655 -0.70710701 0.00000000
vn 0.70710680 -0.70710676 0.00000000
vn 0.00000000 -1.00000000 0.00000000
vn 0.00000000 -1.00000000 0.00000000
vn 0.00000000 -1.00000000 0.00000000
vn 0.00000000 -1.00000000 0.00000000
vn 0.00000000 0.00000000 -1.00000000
vn 0.00000000 0.00000000 -1.00000000
vn 0.00000000 0.00000000 -1.00000000
vn 0.00000000 0.00000000 -1.00000000
vn 0.00000000 0.00000000 -1.00000000
vn -0.00000000 -0.00000000 -1.00000000
vn 0.00000000 0.00000000 -1.00000000
vn 0.00000000 0.00000000 -1.00000000
vn 0.00000000 0.00000000 -1.00000000
vn 0.00000000 0.00000000 -1.00000000
vn 0.00000000 0.00000000 -1.00000000
vn 0.00000000 0.00000000 -1.00000000
vn 0.00000000 0.00000000 -1.00000000
vn 0.00000000 0.00000000 -1.00000000
vn 0.00000000 0.00000000 -1.00000000
vn -0.00000000 -0.00000000 -1.00000000
vn -0.00000000 -0.00000000 -1.00000000
vn -0.00000000 -0.00000000 -1.00000000
vn -0.00000000 -0.00000000 -1.00000000
vn -0.00000000 -0.00000000 -1.00000000
vn -0.00000000 -0.00000000 -1.00000000
vn -0.00000000 -0.00000000 -1.00000000
vn -0.00000000 -0.00000000 -1.00000000
vn -0.00000000 -0.00000000 -1.00000000
vn -0.00000000 -0.00000000 -1.00000000
vn -0.00000000 -0.00000000 -1.00000000
vn 0.00000000 -0.00000000 -1.00000000
vn 0.00000000 -0.00000000 -1.00000000
vn 0.00000000 -0.00000000 -1.00000000
vn -0.00000000 -0.00000000 -1.00000000
vn 0.00000000 -0.00000000 -1.00000000
vn 0.00000000 0.00000000 -1.00000000
vn 0.00000000 0.00000000 -1.00000000
vn 0.00000000 0.00000000 -1.00000000
vn 0.00000000 0.00000000 -1.00000000
vn 0.00000000 0.00000000 -1.00000000
vn 0.00000000 0.00000000 -1.00000000
vn 0.00000000 -0.00000000 -1.00000000
vn 0.00000000 -0.00000000 -1.00000000
vn 0.00000000 0.00000000 -1.00000000
vn 0.00000000 0.00000000 -1.00000000
vn 0.00000000 0.00000000 1.00000000
vn 0.00000000 0.00000000 1.00000000
vn 0.00000000 0.00000000 1.00000000
vn 0.00000000 0.00000000 1.00000000
vn 0.00000000 0.00000000 1.00000000
vn 0.00000000 -0.70710942 -0.70710415
vn 0.00000000 -0.70710942 -0.70710415
vn 0.00000000 -0.70710942 -0.70710415
vn 0.00000000 -0.70710942 -0.70710415
vn 0.00000000 -0.70710942 0.70710415
vn 0.00000000 -0.70710942 0.70710415
vn 0.00000000 -0.70710942 0.70710415
vn 0.00000000 -0.70710942 0.70710415
vn -0.70710415 -0.70710942 0.00000000
vn -0.70710415 -0.70710942 0.00000000
vn -0.70710415 -0.70710942 0.00000000
vn -0.70710415 -0.70710942 0.00000000
vn -0.57734884 -0.57735314 -0.57734884
vn -0.57734884 -0.57735314 -0.57734884
vn -0.57734884 -0.57735314 -0.57734884
vn -0.57734884 -0.57735314 0.57734884
vn -0.57734884 -0.57735314 0.57734884
vn -0.57734884 -0.57735314 0.57734884
vn -0.70710678 -0.00000000 -0.70710678
vn -0.70710678 -0.00000000 -0.70710678
vn -0.70710678 -0.00000000 -0.70710678
vn -0.70710678 -0.00000000 -0.70710678
vn -0.70710678 0.00000000 0.70710678
vn -0.70710678 0.00000000 0.70710678
vn -0.70710678 0.00000000 0.70710678
vn -0.70710678 0.00000000 0.70710678
vn 0.70710678 0.00000000 -0.70710678
vn 0.70710678 0.00000000 -0.70710678
vn 0.70710678 0.00000000 -0.70710678
vn 0.70710678 0.00000000 -0.70710678
vn 0.70710678 0.00000000 0.70710678
vn 0.70710678 0.00000000 0.70710678
vn 0.70710678 0.00000000 0.70710678
vn 0.70710678 0.00000000 0.70710678
vn -0.08743399 -0.99617032 0.00000000
vn -0.08743399 -0.99617032 0.00000000
vn -0.08743399 -0.99617032 0.00000000
vn -0.08743399 -0.99617032 0.00000000
vn -0.25837726 -0.96604409 0.00000000
vn -0.25837726 -0.96604409 0.00000000
vn -0.25837726 -0.96604409 0.00000000
vn -0.25837726 -0.96604409 0.00000000
vn -0.42296384 -0.90614656 0.00000000
vn -0.42296384 -0.90614656 0.00000000
vn -0.42296384 -0.90614656 0.00000000
vn -0.42296384 -0.90614656 0.00000000
vn -0.57375118 -0.81902966 0.00000000
vn -0.57375118 -0.81902966 0.00000000
vn -0.57375118 -0.81902966 0.00000000
vn -0.57375118 -0.81902966 0.00000000
vn -0.70710678 -0.70710678 0.00000000
vn -0.70710678 -0.70710678 0.00000000
vn -0.70710678 -0.70710678 0.00000000
vn -0.70710678 -0.70710678 0.00000000
vn -0.81902966 -0.57375118 0.00000000
vn -0.81902966 -0.57375118 0.00000000
vn -0.81902966 -0.57375118 0.00000000
vn -0.81902966 -0.57375118 0.00000000
vn -0.90614656 -0.42296384 0.00000000
vn -0.90614656 -0.42296384 0.00000000
vn -0.90614656 -0.42296384 0.00000000
vn -0.90614656 -0.42296384 0.00000000
vn -0.96604409 -0.25837726 0.00000000
vn -0.96604409 -0.25837726 0.00000000
vn -0.96604409 -0.25837726 0.00000000
vn -0.96604409 -0.25837726 0.00000000
vn -0.99617032 -0.08743399 0.00000000
vn -0.99617032 -0.08743399 0.00000000
vn -0.99617032 -0.08743399 0.00000000
vn -0.99617032 -0.08743399 0.00000000
vn -0.99617032 0.08743399 0.00000000
vn -0.99617032 0.08743399 0.00000000
vn -0.99617032 0.08743399 0.00000000
vn -0.99617032 0.08743399 0.00000000
vn -0.96604409 0.25837726 0.00000000
vn -0.96604409 0.25837726 0.00000000
vn -0.96604409 0.25837726 0.00000000
vn -0.96604409 0.25837726 0.00000000
vn -0.90614656 0.42296384 0.00000000
vn -0.90614656 0.42296384 -0.00000000
vn -0.90614656 0.42296384 -0.00000000
vn -0.90614656 0.42296384 -0.00000000
vn -0.81902966 0.57375118 -0.00000000
vn -0.81902966 0.57375118 -0.00000000
vn -0.81902966 0.57375118 -0.00000000
vn -0.81902966 0.57375118 -0.00000000
vn -0.70710678 0.70710678 -0.00000000
vn -0.70710678 0.70710678 -0.00000000
vn -0.70710678 0.70710678 -0.00000000
vn -0.70710678 0.70710678 -0.00000000
vn -0.57375118 0.81902966 -0.00000000
vn -0.57375118 0.81902966 -0.00000000
vn -0.57375118 0.81902966 -0.00000000
vn -0.57375118 0.81902966 -0.00000000
vn -0.42296384 0.90614656 -0.00000000
vn -0.42296384 0.90614656 -0.00000000
vn -0.42296384 0.90614656 -0.00000000
vn -0.42296384 0.90614656 -0.00000000
vn -0.25837726 0.96604409 -0.00000000
vn -0.25837726 0.96604409 -0.00000000
vn -0.25837726 0.96604409 -0.00000000
vn -0.25837726 0.96604409 0.00000000
vn -0.08743399 0.99617032 0.00000000
vn -0.08743399 0.99617032 0.00000000
vn -0.08743399 0.99617032 0.00000000
vn -0.08743399 0.99617032 0.00000000
vn 0.08743399 0.99617032 0.00000000
vn 0.08743399 0.99617032 0.00000000
vn 0.08743399 0.99617032 0.00000000
vn 0.08743399 0.99617032 0.00000000
vn 0.25837726 0.96604409 0.00000000
vn 0.25837726 0.96604409 -0.00000000
vn 0.25837726 0.96604409 -0.00000000
vn 0.25837726 0.96604409 -0.00000000
vn 0.42296384 0.90614656 -0.00000000
vn 0.42296384 0.90614656 -0.00000000
vn 0.42296384 0.90614656 -0.00000000
vn 0.42296384 0.90614656 -0.00000000
vn 0.57375118 0.81902966 -0.00000000
vn 0.57375118 0.81902966 -0.00000000
vn 0.57375118 0.81902966 -0.00000000
vn 0.57375118 0.81902966 -0.00000000
vn 0.70710678 0.70710678 -0.00000000
vn 0.70710678 0.70710678 -0.00000000
vn 0.70710678 0.70710678 -0.00000000
vn 0.70710678 0.70710678 -0.00000000
vn 0.81902966 0.57375118 -0.00000000
vn 0.81902966 0.57375118 -0.00000000
vn 0.81902966 0.57375118 -0.00000000
vn 0.81902966 0.57375118 -0.00000000
vn 0.90614656 0.42296384 -0.00000000
vn 0.90614656 0.42296384 -0.00000000
vn 0.90614656 0.42296384 -0.00000000
vn 0.90614656 0.42296384 0.00000000
vn 0.96604409 0.25837726 0.00000000
vn 0.96604409 0.25837726 0.00000000
vn 0.96604409 0.25837726 0.00000000
vn 0.96604409 0.25837726 0.00000000
vn 0.99617032 0.08743399 0.00000000
vn 0.99617032 0.08743399 0.00000000
vn 0.99617032 0.08743399 0.00000000
vn 0.99617032 0.08743399 0.00000000
vn 0.99617032 -0.08743399 -0.00000000
vn 0.99617032 -0.08743399 -0.00000000
vn 0.99617032 -0.08743399 -0.00000000
vn 0.99617032 -0.08743399 0.00000000
vn 0.96604409 -0.25837726 0.00000000
vn 0.96604409 -0.25837726 0.00000000
vn 0.96604409 -0.25837726 0.00000000
vn 0.96604409 -0.25837726 0.00000000
vn 0.90614656 -0.42296384 0.00000000
vn 0.90614656 -0.42296384 0.00000000
vn 0.90614656 -0.42296384 0.00000000
vn 0.90614656 -0.42296384 0.00000000
vn 0.81902966 -0.57375118 0.00000000
vn 0.81902966 -0.57375118 0.00000000
vn 0.81902966 -0.57375118 0.00000000
vn 0.81902966 -0.57375118 0.00000000
vn 0.70710678 -0.70710678 0.00000000
vn 0.70710678 -0.70710678 0.00000000
vn 0.70710678 -0.70710678 0.00000000
vn 0.70710678 -0.70710678 0.00000000
vn 0.57375118 -0.81902966 0.00000000
vn 0.57375118 -0.81902966 0.00000000
vn 0.57375118 -0.81902966 0.00000000
vn 0.57375118 -0.81902966 0.00000000
vn 0.42296384 -0.90614656 0.00000000
vn 0.42296384 -0.90614656 0.00000000
vn 0.42296384 -0.90614656 0.00000000
vn 0.42296384 -0.90614656 0.00000000
vn 0.25837726 -0.96604409 0.00000000
vn 0.25837726 -0.96604409 0.00000000
vn 0.25837726 -0.96604409 0.00000000
vn 0.25837726 -0.96604409 0.00000000
vn 0.08743399 -0.99617032 0.00000000
vn 0.08743399 -0.99617032 0.00000000
vn 0.08743399 -0.99617032 0.00000000
vn 0.08743399 -0.99617032 0.00000000
vn 0.00000000 0.00000000 -1.00000000
vn 0.00000000 0.00000000 -1.00000000
vn 0.00000000 0.00000000 -1.00000000
vn 0.00000000 0.00000000 -1.00000000
vn 0.00000000 0.00000000 -1.00000000
vn 0.00000000 0.00000000 -1.00000000
vn 0.00000000 0.00000000 -1.00000000
vn 0.00000000 0.00000000 -1.00000000
vn 0.00000000 0.00000000 -1.00000000
vn 0.00000000 0.00000000 -1.00000000
vn 0.00000000 0.00000000 -1.00000000
vn 0.00000000 0.00000000 -1.00000000
vn 0.00000000 0.00000000 -1.00000000
vn 0.00000000 0.00000000 -1.00000000
vn 0.00000000 0.00000000 -1.00000000
vn 0.00000000 0.00000000 -1.00000000
vn 0.00000000 0.00000000 -1.00000000
vn 0.00000000 0.00000000 -1.00000000
vn 0.00000000 0.00000000 -1.00000000
vn 0.00000000 0.00000000 -1.00000000
vn 0.00000000 0.00000000 -1.00000000
vn 0.00000000 0.00000000 -1.00000000
vn 0.00000000 0.00000000 -1.00000000
vn 0.00000000 0.00000000 -1.00000000
vn 0.00000000 0.00000000 -1.00000000
vn 0.00000000 0.00000000 -1.00000000
vn 0.00000000 0.00000000 -1.00000000
vn 0.00000000 0.00000000 -1.00000000
vn 0.00000000 0.00000000 -1.00000000
vn 0.00000000 0.00000000 -1.00000000
vn 0.00000000 0.00000000 -1.00000000
vn 0.00000000 0.00000000 -1.00000000
vn 0.00000000 0.00000000 -1.00000000
vn 0.00000000 0.00000000 -1.00000000
vn 0.00000000 0.00000000 -1.00000000
vn 0.00000000 0.00000000 -1.00000000
vn 0.00000000 0.00000000 -1.00000000
vn 0.00000000 -1.00000000 0.00000000
vn -0.00000000 -1.00000000 0.00000000
vn 0.00000000 -1.00000000 0.00000000
vn 0.00000000 -1.00000000 0.00000000
vn -0.00000000 -1.00000000 0.00000000
vn 0.00000000 -1.00000000 0.00000000
vn 0.00000000 -1.00000000 0.00000000
vn 0.00000000 -1.00000000 0.00000000
vn -0.00000000 -1.00000000 0.00000000
vn 0.00000000 -1.00000000 0.00000000
vn 0.00000000 -1.00000000 0.00000000
vn -0.00000000 -1.00000000 0.00000000
vn -0.00000000 1.00000000 -0.00000000
vn 0.00000000 1.00000000 -0.00000000
vn 0.00000000 1.00000000 -0.00000000
vn -0.00000000 1.00000000 -0.00000000
vn 0.00000000 1.00000000 0.00000000
vn 0.00000000 1.00000000 0.00000000
vn -0.00000000 1.00000000 -0.00000000
vn 0.00000000 1.00000000 0.00000000
vn 0.00000000 1.00000000 -0.00000000
vn 0.00000000 1.00000000 0.00000000
vn 0.00000000 1.00000000 -0.00000000
vn -0.00000000 1.00000000 -0.00000000
vn -1.00000000 0.00000000 0.00000000
vn -1.00000000 0.00000000 0.00000000
vn -1.00000000 0.00000000 0.00000000
vn -1.00000000 0.00000000 0.00000000
vn 0.00000000 0.00000000 1.00000000
vn 0.00000000 0.00000000 1.00000000
vn 0.00000000 0.00000000 1.00000000
vn 0.00000000 0.00000000 1.00000000
vn 1.00000000 0.00000000 0.00000000
vn 1.00000000 0.00000000 0.00000000
vn 1.00000000 0.00000000 0.00000000
vn 1.00000000 0.00000000 0.00000000
vn 0.00000000 0.00000000 -1.00000000
vn 0.00000000 0.00000000 -1.00000000
vn 0.00000000 0.00000000 -1.00000000
vn 0.00000000 0.00000000 -1.00000000
vn 0.00000000 1.00000000 0.00000000
vn 0.00000000 1.00000000 0.00000000
vn 0.00000000 1.00000000 0.00000000
vn 0.00000000 1.00000000 0.00000000
vn -0.70710415 0.70710942 0.00000000
vn -0.70710415 0.70710942 0.00000000
vn -0.70710415 0.70710942 0.00000000
vn -0.70710415 0.70710942 0.00000000
vn 0.70710415 0.70710942 0.00000000
vn 0.70710415 0.70710942 0.00000000
vn 0.70710415 0.70710942 0.00000000
vn 0.70710415 0.70710942 0.00000000
vn -0.70710678 0.00000000 0.70710678
vn -0.70710678 0.00000000 0.70710678
vn -0.70710678 0.00000000 0.70710678
vn -0.70710678 0.00000000 0.70710678
vn 0.70710678 0.00000000 0.70710678
vn 0.70710678 0.00000000 0.70710678
vn 0.70710678 0.00000000 0.70710678
vn 0.70710678 0.00000000 0.70710678
vn 0.00000000 0.00000000 1.00000000
vn 0.00000000 0.00000000 1.00000000
vn 0.00000000 0.00000000 1.00000000
vn 0.00000000 0.00000000 1.00000000
vn -0.70710678 -0.00000000 -0.70710678
vn -0.70710678 -0.00000000 -0.70710678
vn -0.70710678 -0.00000000 -0.70710678
vn -0.70710678 -0.00000000 -0.70710678
vn 0.70710678 -0.00000000 -0.70710678
vn 0.70710678 -0.00000000 -0.70710678
vn 0.70710678 -0.00000000 -0.70710678
vn 0.70710678 -0.00000000 -0.70710678
vn 0.00000000 -0.00000000 -1.00000000
vn 0.00000000 -0.00000000 -1.00000000
vn 0.00000000 -0.00000000 -1.00000000
vn 0.00000000 -0.00000000 -1.00000000
vn 1.00000000 0.00000000 0.00000000
vn 1.00000000 0.00000000 0.00000000
vn 1.00000000 0.00000000 0.00000000
vn 1.00000000 0.00000000 0.00000000
vn -1.00000000 0.00000000 0.00000000
vn -1.00000000 0.00000000 0.00000000
vn -1.00000000 0.00000000 0.00000000
vn -1.00000000 0.00000000 0.00000000
f 1//1 2//2 3//3
f 3//3 2//2 4//4
f 5//5 6//6 7//7
f 7//7 6//6 8//8
f 9//9 10//10 11//11
f 12//12 13//13 14//14
f 11//11 15//15 9//9
f 9//9 15//15 12//12
f 9//9 12//12 16//16
f 16//16 12//12 14//14
f 17//17 18//18 19//19
f 19//19 18//18 20//20
f 21//21 22//22 23//23
f 22//22 24//24 23//23
f 23//23 24//24 25//25
f 23//23 25//25 26//26
f 26//26 25//25 27//27
f 26//26 27//27 28//28
f 28//28 29//29 26//26
f 26//26 29//29 30//30
f 26//26 30//30 31//31
f 31//31 32//32 26//26
f 26//26 32//32 33//33
f 26//26 33//33 34//34
f 34//34 35//35 26//26
f 26//26 35//35 36//36
f 26//26 36//36 37//37
f 37//37 36//36 38//38
f 37//37 38//38 39//39
f 39//39 40//40 37//37
f 37//37 40//40 41//41
f 37//37 41//41 42//42
f 42//42 43//43 37//37
f 37//37 43//43 44//44
f 37//37 44//44 45//45
f 45//45 44//44 46//46
f 46//46 47//47 45//45
f 45//45 47//47 48//48
f 45//45 48//48 49//49
f 50//50 45//45 51//51
f 52//52 23//23 53//53
f 53//53 23//23 50//50
f 53//53 50//50 54//54
f 54//54 50//50 51//51
f 52//52 55//55 23//23
f 23//23 55//55 56//56
f 23//23 56//56 57//57
f 49//49 58//58 45//45
f 45//45 58//58 59//59
f 45//45 59//59 51//51
f 57//57 60//60 23//23
f 23//23 60//60 61//61
f 23//23 61//61 21//21
f 62//62 63//63 64//64
f 64//64 63//63 65//65
f 64//64 65//65 66//66
f 67//67 68//68 69//69
f 69//69 68//68 70//70
f 71//71 72//72 73//73
f 73//73 72//72 74//74
f 75//75 76//76 77//77
f 77//77 76//76 78//78
f 79//79 80//80 81//81
f 82//82 83//83 84//84
f 85//85 86//86 87//87
f 87//87 86//86 88//88
f 89//89 90//90 91//91
f 91//91 90//90 92//92
f 93//93 94//94 95//95
f 95//95 94//94 96//96
f 97//97 98//98 99//99
f 99//99 98//98 100//100
f 101//101 102//102 103//103
f 103//103 102//102 104//104
f 105//105 106//106 107//107
f 107//107 106//106 108//108
f 109//109 110//110 111//111
f 111//111 110//110 112//112
f 113//113 114//114 115//115
f 115//115 114//114 116//116
f 117//117 118//118 119//119
f 119//119 118//118 120//120
f 121//121 122//122 123//123
f 123//123 122//122 124//124
f 125//125 126//126 127//127
f 127//127 126//126 128//128
f 129//129 130//130 131//131
f 131//131 130//130 132//132
f 133//133 134//134 135//135
f 135//135 134//134 136//136
f 137//137 138//138 139//139
f 139//139 138//138 140//140
f 141//141 142//142 143//143
f 143//143 142//142 144//144
f 145//145 146//146 147//147
f 147//147 146//146 148//148
f 149//149 150//150 151//151
f 151//151 150//150 152//152
f 153//153 154//154 155//155
f 155//155 154//154 156//156
f 157//157 158//158 159//159
f 159//159 158//158 160//160
f 161//161 162//162 163//163
f 163//163 162//162 164//164
f 165//165 166//166 167//167
f 167//167 166//166 168//168
f 169//169 170//170 171//171
f 171//171 170//170 172//172
f 173//173 174//174 175//175
f 175//175 174//174 176//176
f 177//177 178//178 179//179
f 179//179 178//178 180//180
f 181//181 182//182 183//183
f 183//183 182//182 184//184
f 185//185 186//186 187//187
f 187//187 186//186 188//188
f 189//189 190//190 191//191
f 191//191 190//190 192//192
f 193//193 194//194 195//195
f 195//195 194//194 196//196
f 197//197 198//198 199//199
f 199//199 198//198 200//200
f 201//201 202//202 203//203
f 203//203 202//202 204//204
f 205//205 206//206 207//207
f 207//207 206//206 208//208
f 209//209 210//210 211//211
f 211//211 210//210 212//212
f 213//213 214//214 215//215
f 215//215 214//214 216//216
f 217//217 218//218 219//219
f 219//219 218//218 220//220
f 221//221 222//222 223//223
f 223//223 222//222 224//224
f 225//225 226//226 227//227
f 227//227 226//226 228//228
f 229//229 230//230 231//231
f 231//231 230//230 232//232
f 233//233 234//234 235//235
f 235//235 234//234 236//236
f 237//237 238//238 239//239
f 239//239 238//238 240//240
f 241//241 242//242 243//243
f 243//243 242//242 244//244
f 245//245 246//246 247//247
f 247//247 246//246 248//248
f 247//247 248//248 249//249
f 250//250 251//251 247//247
f 247//247 251//251 252//252
f 247//247 252//252 245//245
f 253//253 254//254 247//247
f 247//247 254//254 255//255
f 247//247 255//255 250//250
f 256//256 257//257 247//247
f 247//247 257//257 258//258
f 247//247 258//258 253//253
f 259//259 260//260 247//247
f 247//247 260//260 261//261
f 247//247 261//261 256//256
f 262//262 263//263 247//247
f 247//247 263//263 264//264
f 247//247 264//264 259//259
f 265//265 266//266 247//247
f 247//247 266//266 267//267
f 247//247 267//267 262//262
f 268//268 269//269 247//247
f 247//247 269//269 270//270
f 247//247 270//270 265//265
f 271//271 272//272 247//247
f 247//247 272//272 273//273
f 247//247 273//273 268//268
f 274//274 275//275 247//247
f 247//247 275//275 276//276
f 247//247 276//276 271//271
f 277//277 278//278 247//247
f 247//247 278//278 279//279
f 247//247 279//279 274//274
f 249//249 280//280 247//247
f 247//247 280//280 281//281
f 247//247 281//281 277//277
f 282//282 283//283 284//284
f 285//285 286//286 287//287
f 287//287 288//288 285//285
f 285//285 288//288 289//289
f 285//285 289//289 283//283
f 283//283 289//289 290//290
f 283//283 290//290 284//284
f 284//284 291//291 282//282
f 282//282 291//291 292//292
f 282//282 292//292 286//286
f 286//286 292//292 293//293
f 286//286 293//293 287//287
f 294//294 295//295 296//296
f 297//297 298//298 295//295
f 295//295 298//298 299//299
f 295//295 299//299 296//296
f 296//296 300//300 294//294
f 294//294 300//300 301//301
f 294//294 301//301 302//302
f 301//301 303//303 302//302
f 302//302 303//303 304//304
f 302//302 304//304 297//297
f 297//297 304//304 305//305
f 297//297 305//305 298//298
f 306//306 307//307 308//308
f 308//308 307//307 309//309
f 310//310 311//311 312//312
f 312//312 311//311 313//313
f 314//314 315//315 316//316
f 316//316 315//315 317//317
f 318//318 319//319 320//320
f 320//320 319//319 321//321
f 322//322 323//323 324//324
f 324//324 323//323 325//325
f 326//326 327//327 328//328
f 328//328 327//327 329//329
f 330//330 331//331 332//332
f 332//332 331//331 333//333
f 334//334 335//335 336//336
f 336//336 335//335 337//337
f 338//338 339//339 340//340
f 340//340 339//339 341//341
f 342//342 343//343 344//344
f 344//344 343//343 345//345
f 346//346 347//347 348//348
f 348//348 347//347 349//349
f 350//350 351//351 352//352
f 352//352 351//351 353//353
f 354//354 355//355 356//356
f 356//356 355//355 357//357
f 358//358 359//359 360//360
f 360//360 359//359 361//361
f 362//362 363//363 364//364
f 364//364 363//363 365//365

